<?xml version="1.0" encoding="utf-8"?>
<!-- Generated by IcoMoon.io -->
<!DOCTYPE svg PUBLIC "-//W3C//DTD SVG 1.1//EN" "http://www.w3.org/Graphics/SVG/1.1/DTD/svg11.dtd">
<svg version="1.1" xmlns="http://www.w3.org/2000/svg" xmlns:xlink="http://www.w3.org/1999/xlink" width="32" height="1428" viewBox="0 0 32 1470">
<svg id="icon_agent" width="32" height="32" viewBox="0 0 32 32" x="0" y="0">
<path fill="#fff5e4" d="M30 16c0 7.732-6.268 14-14 14s-14-6.268-14-14c0-7.732 6.268-14 14-14s14 6.268 14 14z"></path>
<path fill="#ffb52e" d="M16 18.074c0 0 0.104 0.006 0.182 0.016 0.132 0.018 0.212 0.033 0.335 0.065 0.027 0.007 0.068 0.033 0.057 0.105-0.043 0.28-0.135 0.461-0.185 0.579 0.040 0.173 0.175 0.83 0.194 0.919 0.043 0.196 0.153 0.746 0.193 1.096 0.007 0.063-0.040 0.114-0.056 0.131-0.308 0.352-0.641 0.433-0.717 0.458-0.008 0.001-0.003-3.369-0.003-3.369z"></path>
<path fill="#ffb52e" d="M16 18.074c0 0-0.104 0.006-0.182 0.016-0.132 0.018-0.212 0.033-0.335 0.065-0.027 0.007-0.068 0.033-0.057 0.105 0.043 0.28 0.135 0.461 0.185 0.579-0.040 0.173-0.175 0.83-0.194 0.919-0.043 0.196-0.153 0.746-0.193 1.096-0.007 0.063 0.040 0.114 0.056 0.131 0.308 0.352 0.641 0.433 0.717 0.458 0.008 0.001 0.003-3.369 0.003-3.369z"></path>
<path fill="#ffb52e" d="M16.068 18.247c-0.664 0-1.641-1.092-1.83-1.312l0.378-0.326c0.397 0.459 1.133 1.138 1.452 1.138 0.313 0 0.949-0.647 1.28-1.085l0.398 0.301c-0.162 0.215-1.005 1.284-1.678 1.284z"></path>
<path fill="#ffb52e" d="M16 10.010c1.134 0 1.776 0.379 2.146 1.266 0.516 1.24 0.314 2.317 0.313 2.323l-0.243 1.221 0.226-0.065c-0.635 0.489-1.417 1.264-1.417 2.108 0 0.932 1.169 1.687 3.47 2.838 0.206 0.103 0.368 0.183 0.457 0.234 0.221 0.125 0.414 0.285 0.545 0.45l0.066 0.083 0.087 0.062c0.217 0.154 0.342 0.393 0.342 0.655 0 0.444-0.362 0.806-0.806 0.806-0.054 0-0.11-0.006-0.166-0.018l-0.125-0.026-0.126 0.017c-0.039 0.005-0.077 0.012-0.115 0.018l-0.041 0.008h-9.222c-0.019-0.001-0.036-0.005-0.053-0.008-0.041-0.007-0.082-0.013-0.125-0.018l-0.118-0.013-0.117 0.024c-0.053 0.011-0.108 0.016-0.164 0.016-0.444 0-0.806-0.362-0.806-0.806 0-0.261 0.124-0.5 0.341-0.654l0.086-0.061 0.066-0.083c0.131-0.165 0.325-0.325 0.547-0.451 0.081-0.046 0.222-0.119 0.402-0.213 2.702-1.408 3.525-2.076 3.525-2.859 0-0.854-0.799-1.636-1.438-2.124l0.24 0.068-0.235-1.203c-0.002-0.011-0.204-1.089 0.312-2.328 0.37-0.888 1.012-1.267 2.146-1.267zM16 9.26c-0.998 0-2.217 0.237-2.838 1.728s-0.355 2.765-0.355 2.765-0.095-0.027-0.217-0.027c-0.183 0-0.426 0.062-0.493 0.373-0.111 0.518 0.333 0.778 0.71 1.037s1.419 1.052 1.419 1.728-3.016 2.118-3.548 2.42c-0.284 0.162-0.561 0.381-0.764 0.637-0.395 0.282-0.655 0.742-0.655 1.265 0 0.86 0.697 1.556 1.556 1.556 0.108 0 0.213-0.011 0.314-0.032 0.087 0.010 0.162 0.031 0.259 0.031 0.962 0 4.612 0 4.612 0s3.925 0 4.612 0c0.094 0 0.169-0.021 0.253-0.033 0.103 0.022 0.21 0.034 0.32 0.034 0.86 0 1.556-0.697 1.556-1.556 0-0.524-0.261-0.984-0.657-1.266-0.203-0.255-0.479-0.475-0.762-0.636-0.532-0.303-3.548-1.642-3.548-2.42 0-0.669 1.042-1.469 1.419-1.728s0.821-0.519 0.71-1.037c-0.067-0.311-0.309-0.374-0.492-0.374-0.122 0-0.218 0.028-0.218 0.028s0.266-1.274-0.355-2.765c-0.621-1.49-1.84-1.728-2.838-1.728v0z"></path>
</svg>
<svg id="icon_chengjiao" width="32" height="32" viewBox="0 0 32 32" x="0" y="42">
	<g>
		<path fill-rule="evenodd" clip-rule="evenodd" fill="#87CF76" d="M16,2c7.732,0,14,6.268,14,14s-6.268,14-14,14S2,23.732,2,16
			S8.268,2,16,2z"/>
		<path fill="#FFFFFF" d="M20.375,11.625v1.167h-8.75v-1.167H20.375 M21.25,10.75h-10.5v2.917h10.5V10.75L21.25,10.75z"/>
		<path fill="#FFFFFF" d="M19.792,13.667v7h-4.985h-2.598v-7H19.792 M20.667,12.792h-9.333v8.75h3.473h5.86V12.792L20.667,12.792z"/>
		<path fill-rule="evenodd" clip-rule="evenodd" fill="#FFFFFF" d="M14.903,17.981l2.508-2.27l0.627,0.64l-2.508,2.27L14.903,17.981z
			"/>
		<g>
			<g>
				<polygon fill-rule="evenodd" clip-rule="evenodd" fill="#FFFFFF" points="14.589,16.379 13.962,17.02 15.53,18.621
					16.157,17.981 			"/>
			</g>
		</g>
	</g>
</svg>
<svg id="icon_ditie" width="32" height="32" viewBox="0 0 32 32" x="0" y="84">
<path fill="#649cf1" d="M30 16c0 7.732-6.268 14-14 14s-14-6.268-14-14c0-7.732 6.268-14 14-14s14 6.268 14 14z"></path>
<path fill="#fff" d="M10.296 21.185h11.407c0.43 0 0.778 0.348 0.778 0.778s-0.348 0.778-0.778 0.778h-11.407c-0.43 0-0.778-0.348-0.778-0.778s0.349-0.778 0.778-0.778z"></path>
<path fill="#649cf1" d="M16 21.185c0.43 0 0.778 0.348 0.778 0.778s-0.348 0.778-0.778 0.778-0.778-0.348-0.778-0.778c0-0.43 0.348-0.778 0.778-0.778z"></path>
<path fill="#fff" d="M16 22.991c-0.567 0-1.028-0.461-1.028-1.028s0.461-1.028 1.028-1.028c0.567 0 1.028 0.461 1.028 1.028s-0.461 1.028-1.028 1.028zM16 21.435c-0.291 0-0.528 0.237-0.528 0.528s0.237 0.528 0.528 0.528c0.292 0 0.528-0.237 0.528-0.528s-0.236-0.528-0.528-0.528z"></path>
<path fill="#fff" d="M20.328 15.589h0.079l-4.407 5.596-4.407-5.596h0.079c-0.54-0.803-0.857-1.764-0.857-2.798 0-2.81 2.321-5.087 5.185-5.087s5.185 2.278 5.185 5.087c0 1.034-0.316 1.995-0.857 2.798z"></path>
<path fill="#649cf1" d="M16.935 15.741c0.365 0 0.621-0.342 0.621-0.706l0.259-1.629h0.416c0.232 0 0.313-0.177 0.337-0.232 0.034-0.078 0.060-0.263-0.143-0.478l-1.965-1.94c-0.122-0.129-0.285-0.2-0.46-0.2s-0.338 0.071-0.46 0.2l-1.965 1.94c-0.203 0.215-0.177 0.4-0.143 0.478 0.024 0.055 0.105 0.232 0.337 0.232h0.417l0.259 1.629c0 0.363 0.257 0.706 0.621 0.706 0 0 1.869 0 1.869 0z"></path>
</svg>
<svg id="icon_ershoufang" width="32" height="32" viewBox="0 0 32 32" x="0" y="126">
	<g>
		<path fill-rule="evenodd" clip-rule="evenodd" fill="#44C288" d="M16,2c7.732,0,14,6.268,14,14s-6.268,14-14,14S2,23.732,2,16
			S8.268,2,16,2z"/>
		<g>
			<path fill-rule="evenodd" clip-rule="evenodd" fill="#44C288" d="M14.542,20.147h2.917v1.75h-2.917V20.147z"/>
			<g>
				<path fill="#FFFFFF" d="M17.458,17.522v3.5h-2.917v-3.5H17.458 M17.75,16.647h-3.5c-0.322,0-0.583,0.261-0.583,0.583v4.667h4.667
					V17.23C18.333,16.908,18.072,16.647,17.75,16.647L17.75,16.647z"/>
			</g>
			<g>
				<path fill="#FFFFFF" d="M15.97,11.149l5.015,3.307v6.565h-9.971v-6.636L15.97,11.149 M15.973,10.103l-5.833,3.81v7.984h11.721
					v-7.911L15.973,10.103L15.973,10.103z"/>
			</g>
		</g>
		<rect x="14.542" y="20.261" fill-rule="evenodd" clip-rule="evenodd" fill="#44C288" width="2.912" height="1.65"/>
	</g>
</svg>
<svg id="icon_maifang" width="32" height="32" viewBox="0 0 32 32" x="0" y="168">
	<g>
		<g>
			<g>
				<circle fill-rule="evenodd" clip-rule="evenodd" fill="#65CEB9" cx="16" cy="16" r="14"/>
			</g>
		</g>
		<path fill="#FFFFFF" d="M16.922,22.856c-0.112,0-0.224-0.043-0.309-0.128l-6.467-6.461c-0.082-0.082-0.128-0.193-0.128-0.31
			l0-3.748c0-0.013,0.001-0.026,0.002-0.039c0.003-0.032,0.077-0.793,0.711-1.436c0.785-0.702,1.696-0.71,1.734-0.71h3.49
			c0.125,0,0.243,0.054,0.325,0.145l6.45,6.445c0.082,0.082,0.128,0.193,0.128,0.31c0,0.116-0.046,0.227-0.128,0.309l-5.498,5.495
			C17.146,22.814,17.034,22.856,16.922,22.856z M10.893,15.776l6.03,6.024l4.879-4.877L15.772,10.9h-3.308
			c-0.004,0-0.622,0.013-1.131,0.468c-0.352,0.359-0.429,0.787-0.44,0.867V15.776z"/>
		<path fill-rule="evenodd" clip-rule="evenodd" fill="#FFFFFF" d="M14.25,13.083c0.644,0,1.167,0.522,1.167,1.167
			c0,0.644-0.522,1.167-1.167,1.167s-1.167-0.522-1.167-1.167C13.083,13.606,13.606,13.083,14.25,13.083z"/>
	</g>
</svg>
<svg id="icon_wiki" width="32" height="32" viewBox="0 0 32 32" x="0" y="210">
<path fill="#e9f1fd" d="M30 16c0 7.732-6.268 14-14 14s-14-6.268-14-14c0-7.732 6.268-14 14-14s14 6.268 14 14z"></path>
<path fill="#649cf1" d="M18.203 18.584h-4.407c-0.352 0-0.639-0.286-0.639-0.639s0.287-0.64 0.639-0.64h4.407c0.353 0 0.639 0.287 0.639 0.64s-0.286 0.639-0.639 0.639zM13.796 17.806c-0.077 0-0.139 0.062-0.139 0.14 0 0.076 0.062 0.139 0.139 0.139h4.407c0.076 0 0.139-0.062 0.139-0.139s-0.062-0.14-0.139-0.14h-4.407z"></path>
<path fill="#649cf1" d="M16.129 20.398h-2.333c-0.352 0-0.639-0.287-0.639-0.64s0.287-0.639 0.639-0.639h2.333c0.352 0 0.639 0.286 0.639 0.639s-0.287 0.64-0.639 0.64zM13.796 19.62c-0.077 0-0.139 0.062-0.139 0.139s0.062 0.14 0.139 0.14h2.333c0.077 0 0.139-0.062 0.139-0.14 0-0.076-0.062-0.139-0.139-0.139h-2.333z"></path>
<path fill="#649cf1" d="M15.491 15.135v-5.866h4.13v5.866l-2.065-1.18-2.065 1.18zM17.556 13.379l1.565 0.895v-4.505h-3.13v4.504l1.565-0.894z"></path>
<path fill="#649cf1" d="M20.148 22.732h-8.296c-0.709 0-1.287-0.577-1.287-1.287v-10.889c0-0.709 0.578-1.287 1.287-1.287h8.296c0.709 0 1.286 0.578 1.286 1.287v10.889c0.001 0.71-0.577 1.287-1.286 1.287zM11.852 9.769c-0.434 0-0.787 0.353-0.787 0.787v10.889c0 0.434 0.353 0.787 0.787 0.787h8.296c0.434 0 0.786-0.354 0.786-0.787v-10.889c0-0.434-0.353-0.787-0.786-0.787h-8.296z"></path>
</svg>
<svg id="icon_xinfang" width="32" height="32" viewBox="0 0 32 32" x="0" y="252">
	<g>
		<path fill-rule="evenodd" clip-rule="evenodd" fill="#F47E4B" d="M16,2c7.732,0,14,6.268,14,14s-6.268,14-14,14S2,23.732,2,16
			S8.268,2,16,2z"/>
		<path fill="#FFFFFF" d="M18.622,16.142l2.045,0.316v4.411v0.089h-2.045V16.142 M17.747,15.122v6.712h3.795c0-0.829,0-0.964,0-0.964
			s0,0.002,0,0.006v-5.167L17.747,15.122L17.747,15.122z"/>
		<path fill="#FFFFFF" d="M17.75,11.308l0.003,9.65h-6.42v-0.581v-7.341L17.75,11.308 M18.625,10.166l-8.167,2.2v8.011
			c0,0.804,0,0.532,0,1.456h8.17L18.625,10.166L18.625,10.166z"/>
		<g>
			<g>
				<path fill-rule="evenodd" clip-rule="evenodd" fill="#FFFFFF" d="M12.792,17.167h1.167V16h-1.167V17.167z M12.792,15.125h1.167
					v-1.167h-1.167V15.125z M14.833,13.958v1.167H16v-1.167H14.833z"/>
			</g>
		</g>
	</g>
</svg>
<svg id="icon_xuequfang" width="32" height="32" viewBox="0 0 32 32" x="0" y="294">
<path fill="#fdeee1" d="M30 16c0 7.732-6.268 14-14 14s-14-6.268-14-14c0-7.732 6.268-14 14-14s14 6.268 14 14z"></path>
<path fill="#ff7326" d="M22.919 19.55c-0.234 0-0.471-0.174-0.471-0.562 0-0.116 0.123-0.656 0.471-0.656 0.062 0 0.155 0.019 0.244 0.111 0.139 0.144 0.23 0.444 0.227 0.552-0.013 0.41-0.262 0.555-0.471 0.555z"></path>
<path fill="#ff7326" d="M22.544 13.866h0.75v3.957h-0.75v-3.957z"></path>
<path fill="#ff7326" d="M12.191 10.412l0.926 1.978-0.453 0.212-0.926-1.978 0.453-0.212z"></path>
<path fill="#ff7326" d="M13.163 22.768c-0.088 0-0.141-0.005-0.152-0.006l-0.208-0.019-5.248-10.529 1.235 0.892c0.083 0.057 0.802 0.513 1.717-0.185l-1.868-2.513 0.356-0.212c1.811-1.083 2.641-0.732 3.016-0.247 0.636 0.821 0.142 2.433-0.708 3.271-0.707 0.696-1.425 0.867-1.998 0.823l3.974 7.972c0.37-0.018 1.193-0.139 1.992-0.824l0.488 0.568c-1.068 0.918-2.194 1.009-2.596 1.009zM9.742 10.636l1.295 1.743c0.499-0.692 0.652-1.619 0.38-1.971-0.229-0.296-0.842-0.208-1.675 0.228z"></path>
<path fill="#ff7326" d="M17.056 20.938c-2.552 0-3.559-0.644-3.601-0.671l-0.169-0.111v-5.072h0.75v4.64c0.354 0.153 1.287 0.465 3.020 0.465 1.731 0 2.664-0.311 3.021-0.465v-4.335h0.75v4.768l-0.169 0.111c-0.043 0.027-1.050 0.67-3.602 0.67z"></path>
<path fill="#ff7326" d="M18.967 16.080l-9.7-1.443 7.757-2.986 7.836 1.617-5.893 2.812zM12.193 14.313l6.656 0.991 3.674-1.753-5.436-1.122-4.894 1.884z"></path>
</svg>
<svg id="icon_wenda2" width="32" height="32" viewBox="0 0 32 32" x="0" y="336">
<path fill="#e0f7f2" d="M16 2c7.732 0 14 6.268 14 14s-6.268 14-14 14c-7.732 0-14-6.268-14-14s6.268-14 14-14z"></path>
<path fill="#c4f0e6" d="M21.185 10.815h-10.37c-0.573 0-1.037 0.464-1.037 1.037v8.037c0 0.573 0.464 1.037 1.037 1.037h2.333v2.333l3.111-2.333h4.926c0.573 0 1.037-0.464 1.037-1.037v-8.037c0-0.573-0.464-1.037-1.037-1.037z"></path>
<path fill="#23c5a3" d="M16.040 13.326c-0.499 0-0.89 0.142-1.18 0.425-0.297 0.283-0.438 0.674-0.438 1.173h0.768c0-0.29 0.054-0.512 0.169-0.667 0.135-0.182 0.344-0.27 0.634-0.27 0.229 0 0.411 0.061 0.539 0.189 0.121 0.128 0.189 0.303 0.189 0.526 0 0.169-0.061 0.33-0.182 0.479l-0.081 0.094c-0.438 0.391-0.701 0.674-0.789 0.856-0.094 0.182-0.135 0.404-0.135 0.661v0.094h0.775v-0.094c0-0.162 0.034-0.31 0.101-0.445 0.061-0.121 0.148-0.236 0.27-0.33 0.324-0.283 0.519-0.465 0.58-0.533 0.162-0.216 0.249-0.492 0.249-0.829 0-0.411-0.135-0.735-0.404-0.971-0.269-0.243-0.627-0.358-1.065-0.358zM15.919 17.215c-0.148 0-0.27 0.047-0.364 0.142-0.108 0.094-0.155 0.216-0.155 0.364s0.047 0.27 0.155 0.364c0.094 0.094 0.216 0.148 0.364 0.148s0.27-0.047 0.378-0.142c0.094-0.094 0.148-0.222 0.148-0.371s-0.054-0.27-0.148-0.364c-0.102-0.093-0.23-0.141-0.378-0.141z"></path>
<path fill="#23c5a3" d="M21.185 11.565c0.158 0 0.287 0.129 0.287 0.287v8.037c0 0.158-0.129 0.287-0.287 0.287h-5.176l-2.111 1.583v-1.583h-3.083c-0.158 0-0.287-0.129-0.287-0.287v-8.037c0-0.158 0.129-0.287 0.287-0.287h10.37zM21.185 10.815h-10.37c-0.573 0-1.037 0.464-1.037 1.037v8.037c0 0.573 0.464 1.037 1.037 1.037h2.333v2.333l3.111-2.333h4.926c0.573 0 1.037-0.464 1.037-1.037v-8.037c0-0.573-0.464-1.037-1.037-1.037v0z"></path>
</svg>
<svg id="icon_zufang" width="32" height="32" viewBox="0 0 32 32" x="0" y="378">
	<g>
		<path fill-rule="evenodd" clip-rule="evenodd" fill="#E7D159" d="M16,2c7.732,0,14,6.268,14,14s-6.268,14-14,14S2,23.732,2,16
			S8.268,2,16,2z"/>
		<g>
			<g>
				<path fill-rule="evenodd" clip-rule="evenodd" fill="#FFFFFF" d="M17.75,22.417v0.875h1.167v-0.875H17.75z M13.083,23.292h1.167
					v-0.875h-1.167V23.292z"/>
			</g>
		</g>
		<path fill="#FFFFFF" d="M19.316,13.501h-6.632v-3.312c0-0.755,0.702-1.37,1.565-1.37h3.5c0.863,0,1.566,0.615,1.566,1.37V13.501z
			 M13.482,12.704h5.035v-2.515c0-0.31-0.352-0.572-0.768-0.572h-3.5c-0.416,0-0.768,0.262-0.768,0.572V12.704z"/>
		<path fill="#FFFFFF" d="M19.5,22.854h-7c-1.206,0-2.188-0.981-2.188-2.188v-5.833c0-1.206,0.981-2.188,2.188-2.188h7
			c1.206,0,2.188,0.981,2.188,2.188v5.833C21.688,21.873,20.706,22.854,19.5,22.854z M12.5,13.521c-0.724,0-1.312,0.589-1.312,1.312
			v5.833c0,0.724,0.589,1.312,1.312,1.312h7c0.724,0,1.312-0.589,1.312-1.312v-5.833c0-0.724-0.589-1.312-1.312-1.312H12.5z"/>
		<path fill-rule="evenodd" clip-rule="evenodd" fill="#FFFFFF" d="M13.667,15.708h0.875v4.375h-0.875V15.708z"/>
		<path fill-rule="evenodd" clip-rule="evenodd" fill="#FFFFFF" d="M17.458,15.708h0.875v4.375h-0.875V15.708z"/>
	</g>
</svg>
<svg id="icon_haiwai" width="32" height="32" viewBox="0 0 32 32" x="0" y="420">
	<g>
		<path fill-rule="evenodd" clip-rule="evenodd" fill="#DDC68A" d="M16,2c7.732,0,14,6.268,14,14s-6.268,14-14,14S2,23.732,2,16
			S8.268,2,16,2z"/>
		<path fill-rule="evenodd" clip-rule="evenodd" fill="#FFFFFF" d="M15.417,10.458h1.167c0.322,0,0.583,0.261,0.583,0.583v0.875
			h-2.333v-0.875C14.833,10.719,15.094,10.458,15.417,10.458z"/>
		<path fill="#FFFFFF" d="M19.06,12.208c0.087,0,0.145,0.053,0.145,0.089v4.434l-2.828-1.181l-0.334-0.139l-0.335,0.137l-2.914,1.193
			v-4.444c0-0.035,0.058-0.089,0.145-0.089H19.06 M19.06,11.333h-6.12c-0.563,0-1.02,0.431-1.02,0.964v5.747l4.12-1.687l4.04,1.687
			v-5.747C20.08,11.765,19.623,11.333,19.06,11.333L19.06,11.333z"/>
		<g>
			<g>
				<rect x="13.958" y="13.083" fill-rule="evenodd" clip-rule="evenodd" fill="#FFFFFF" width="4.083" height="0.875"/>
			</g>
		</g>
		<g>
			<path fill-rule="evenodd" clip-rule="evenodd" fill="#D8C288" d="M16,14.541c0,0-2.633,2.334-6.417,2.334
				c0.948,1.469,3.208,4.958,3.208,4.958H16h3.208c0,0,1.904-2.899,3.208-4.958C18.256,16.875,16,14.541,16,14.541z"/>
			<path fill="#FFFFFF" d="M15.97,15.667c0.826,0.634,2.49,1.66,4.913,1.983c-0.839,1.305-1.723,2.659-2.148,3.309H16h-2.733
				c-0.445-0.686-1.38-2.131-2.151-3.324C13.38,17.293,15.106,16.275,15.97,15.667 M16,14.541c0,0-2.634,2.334-6.417,2.334
				c0.948,1.469,3.208,4.958,3.208,4.958H16h3.208c0,0,1.904-2.899,3.208-4.958C18.256,16.875,16,14.541,16,14.541L16,14.541z"/>
		</g>
	</g>
</svg>
<svg id="icon_b_wenda" width="32" height="32" viewBox="0 0 32 32" x="0" y="462">
<path fill="#c4f0e6" d="M27.667 3.037h-23.334c-1.289 0-2.333 1.044-2.333 2.333v18.084c0 1.289 1.044 2.333 2.333 2.333h5.249v5.249l7-5.249h11.084c1.289 0 2.333-1.044 2.333-2.333v-18.084c0.001-1.289-1.043-2.333-2.332-2.333z"></path>
<path fill="#23c5a3" d="M16.090 8.687c-1.123 0-2.003 0.32-2.655 0.956-0.668 0.637-0.986 1.517-0.986 2.639h1.728c0-0.653 0.122-1.152 0.38-1.501 0.304-0.41 0.774-0.608 1.427-0.608 0.515 0 0.925 0.137 1.213 0.425 0.272 0.288 0.425 0.682 0.425 1.184 0 0.38-0.137 0.743-0.41 1.078l-0.182 0.212c-0.986 0.88-1.577 1.517-1.775 1.926-0.212 0.41-0.304 0.909-0.304 1.487v0.212h1.744v-0.212c0-0.365 0.077-0.698 0.227-1.001 0.137-0.272 0.333-0.531 0.608-0.743 0.729-0.637 1.168-1.046 1.305-1.199 0.365-0.486 0.56-1.107 0.56-1.865 0-0.925-0.304-1.654-0.909-2.185-0.605-0.546-1.41-0.805-2.396-0.805zM15.818 17.438c-0.333 0-0.608 0.106-0.819 0.32-0.243 0.212-0.349 0.486-0.349 0.819s0.106 0.608 0.349 0.819c0.212 0.212 0.486 0.333 0.819 0.333s0.608-0.106 0.851-0.32c0.212-0.212 0.333-0.5 0.333-0.835s-0.122-0.608-0.333-0.819c-0.23-0.209-0.518-0.317-0.851-0.317z"></path>
<path fill="#23c5a3" d="M27.667 4.725c0.356 0 0.646 0.29 0.646 0.646v18.084c0 0.356-0.29 0.646-0.646 0.646h-11.647l-0.45 0.338-4.3 3.224v-3.563h-6.937c-0.356 0-0.646-0.29-0.646-0.646v-18.084c0-0.356 0.29-0.646 0.646-0.646l23.334 0.001zM27.667 3.037h-23.334c-1.289 0-2.333 1.044-2.333 2.333v18.084c0 1.289 1.044 2.333 2.333 2.333h5.249v5.249l7-5.249h11.084c1.289 0 2.333-1.044 2.333-2.333v-18.084c0.001-1.289-1.043-2.333-2.332-2.333v0z"></path>
</svg>
<svg id="icon_b_fangjia" width="32" height="32" viewBox="0 0 32 32" x="0" y="504">
<path fill="#fff5e3" d="M29.6 13.632l-11.615-10.961c-1.143-0.895-2.933-0.894-4.074 0l-11.513 10.963c-0.453 0.355-0.53 1.007-0.173 1.456 0.571 0.716 2.109 0.91 2.109 0.91v10.5c0 1.779 1.652 3.5 3.318 3.5h17.43c1.645 0 2.585-1.641 2.585-3.5v-10.5c0 0 1.585-0.251 2.11-0.915 0.357-0.449 0.277-1.101-0.177-1.453v0 0z"></path>
<path fill="#ffbb40" d="M15.948 3.5c0.4 0 0.785 0.115 1.067 0.318l11.144 10.516c-0.226 0.077-0.493 0.146-0.726 0.185l-1.265 0.2v11.781c0 0.97-0.38 2-1.085 2h-17.431c-0.777 0-1.818-0.989-1.818-2v-10.5l-0.006-1.313-1.3-0.175c-0.225-0.030-0.486-0.095-0.703-0.166l11.059-10.53c0.281-0.201 0.665-0.316 1.064-0.316zM15.948 2c-0.733 0-1.466 0.224-2.037 0.671l-11.513 10.963c-0.453 0.355-0.53 1.007-0.173 1.456 0.571 0.716 2.109 0.91 2.109 0.91v10.5c0 1.779 1.652 3.5 3.318 3.5h17.43c1.645 0 2.585-1.641 2.585-3.5v-10.5c0 0 1.585-0.251 2.11-0.915 0.357-0.45 0.277-1.101-0.177-1.453l-11.615-10.961c-0.571-0.448-1.304-0.671-2.037-0.671v0z"></path>
<path fill="#ffbb40" d="M11.556 14.878l2.912 5.278h-1.926v1.001h2.487l0.015 0.015v1.259h-2.503v1.001h2.503v2.275h1.911v-2.275h2.518v-1.001h-2.518v-1.259l0.015-0.015h2.503v-1.001h-1.941l2.912-5.278h-2.154l-2.29 4.565-2.29-4.565h-2.154z"></path>
</svg>
<svg id="icon_b_angen" width="32" height="32" viewBox="0 0 32 32" x="0" y="546">
<path fill="#def6f1" d="M2.001 28.678c0 0.001 0 0.002 0 0.003 0 0.727 0.588 1.316 1.312 1.316h25.374c0.725 0 1.312-0.589 1.312-1.316 0-0.001 0-0.002 0-0.003h0.001c0 0 0-5.596-3.495-7.34-2.211-1.103-1.36-0.208-4.075-1.337-2.715-1.127-2.558-1.521-2.558-1.521l-0.026-2.599c0 0 1.017-0.78 1.333-3.225 0.636 0.184 0.846-0.749 0.884-1.343 0.034-0.574 0.368-2.367-0.408-2.205 0.159-1.197 0.273-2.277 0.217-2.849-0.195-2.008-2.718-4.258-5.893-4.258-3.088 0-5.678 2.249-5.872 4.257-0.057 0.572 0.068 1.653 0.227 2.848-0.777-0.16-0.439 1.63-0.401 2.204 0.034 0.594 0.249 1.524 0.884 1.34 0.317 2.445 1.334 3.219 1.334 3.219l-0.024 2.585c0 0 0.157 0.368-2.558 1.496-2.715 1.129-1.863 0.285-4.075 1.388-3.494 1.745-3.494 7.34-3.493 7.34v0z"></path>
<path fill="#23c5a3" d="M15.979 3.502c2.476 0 4.288 1.747 4.401 2.904 0.034 0.35-0.037 1.193-0.211 2.505-0.064 0.482 0.11 0.965 0.466 1.296 0.007 0.007 0.015 0.013 0.022 0.020-0.013 0.211-0.037 0.443-0.052 0.575-0.018 0.167-0.033 0.313-0.039 0.417-0.002 0.025-0.003 0.049-0.006 0.072-0.070 0.032-0.138 0.069-0.203 0.112-0.366 0.24-0.609 0.628-0.665 1.062-0.192 1.485-0.675 2.115-0.792 2.248-0.423 0.275-0.558 0.67-0.553 1.184l0.024 2.423c-0.223 1.527 1.984 2.444 3.483 3.066 1.404 0.584 2 0.698 2.582 0.777 0.301 0.041 0.499 0.068 1.398 0.517 2.080 1.038 2.615 4.393 2.66 5.817h-24.988c0.042-0.875 0.359-4.669 2.658-5.816 0.929-0.463 1.138-0.499 1.454-0.552 0.569-0.096 1.152-0.222 2.527-0.793 2.459-1.021 3.095-1.602 3.363-2.26 0.090-0.221 0.13-0.452 0.12-0.68l0.023-2.512c0.005-0.516-0.131-0.912-0.557-1.186-0.117-0.133-0.597-0.76-0.789-2.24-0.056-0.434-0.3-0.822-0.666-1.062-0.065-0.043-0.133-0.080-0.203-0.112-0.002-0.023-0.004-0.047-0.005-0.072-0.007-0.106-0.022-0.248-0.040-0.41-0.015-0.133-0.041-0.366-0.054-0.579 0.007-0.006 0.014-0.013 0.021-0.019 0.355-0.331 0.528-0.814 0.464-1.295-0.074-0.553-0.269-2.021-0.221-2.506 0.112-1.168 2.001-2.901 4.378-2.901zM15.979 2.002c-3.088 0-5.678 2.249-5.872 4.257-0.057 0.572 0.068 1.653 0.227 2.848-0.033-0.007-0.064-0.010-0.093-0.010-0.655 0-0.344 1.665-0.308 2.214 0.031 0.542 0.213 1.364 0.727 1.364 0.049 0 0.102-0.008 0.157-0.024 0.317 2.445 1.334 3.219 1.334 3.219l-0.024 2.585c0 0 0.157 0.368-2.558 1.496-2.715 1.129-1.863 0.285-4.075 1.388-3.494 1.744-3.494 7.339-3.494 7.339h0.001c0 0.001 0 0.002 0 0.003 0 0.727 0.588 1.316 1.312 1.316h25.374c0.725 0 1.312-0.589 1.312-1.316 0-0.001 0-0.002 0-0.003h0.001c0 0 0-5.596-3.495-7.34-2.211-1.103-1.36-0.208-4.075-1.337-2.715-1.127-2.558-1.521-2.558-1.521l-0.026-2.599c0 0 1.017-0.78 1.333-3.225 0.056 0.016 0.108 0.024 0.157 0.024 0.514 0 0.692-0.825 0.727-1.367 0.033-0.549 0.34-2.215-0.314-2.215-0.029 0-0.060 0.003-0.094 0.010 0.159-1.197 0.273-2.277 0.217-2.849-0.194-2.006-2.717-4.257-5.893-4.257v0z"></path>
<path fill="#23c5a3" d="M17.926 28.435c-0.264-2.096-0.981-5.582-1.226-6.339 0.791-0.816 1.063-2.105 1.074-2.163 0.028-0.135-0.064-0.266-0.207-0.295-0.035-0.007-0.858-0.17-1.562-0.17s-1.532 0.162-1.568 0.17c-0.142 0.028-0.235 0.159-0.207 0.295 0.011 0.057 0.282 1.347 1.072 2.163-0.245 0.758-0.964 4.24-1.228 6.337-0.009 0.068 0.013 0.138 0.060 0.191 0.029 0.033 0.347-0.332 1.708 0.447 0.041 0.024 0.088 0.035 0.135 0.035 0.026 0 0.051-0.004 0.077-0.011 0.030-0.005 0.059-0.013 0.086-0.029 0.021-0.011 0.038-0.025 0.055-0.041 1.444-0.769 1.657-0.378 1.682-0.411 0.039-0.053 0.057-0.116 0.049-0.179z"></path>
</svg>
<svg id="icon_hot" width="32" height="32" viewBox="0 0 32 32" x="0" y="588">
<path fill="#e0f7f2" d="M30 16c0 7.732-6.268 14-14 14s-14-6.268-14-14c0-7.732 6.268-14 14-14s14 6.268 14 14z"></path>
<path fill="#c4f0e6" d="M16 23.841c-3.477 0-6.306-2.637-6.306-5.879 0-1.633 0.853-2.656 1.757-3.739 1.16-1.391 2.463-2.953 1.712-5.883 1.794 0.532 3.057 1.488 3.675 2.792 0.744 1.567 0.428 3.258-0.069 4.23-0.091 0.178-0.051 0.395 0.096 0.53 0.084 0.077 0.191 0.117 0.299 0.117 0.082 0 0.163-0.022 0.236-0.068 1.22-0.766 1.81-2.136 1.705-3.908 2.956 1.93 3.201 4.985 3.201 5.931 0 3.239-2.829 5.877-6.306 5.877z"></path>
<path fill="#23c5a3" d="M13.752 9.008c1.298 0.512 2.198 1.288 2.685 2.314 0.631 1.33 0.423 2.887-0.064 3.838-0.182 0.356-0.104 0.789 0.191 1.059 0.168 0.154 0.383 0.233 0.599 0.233 0.163 0 0.327-0.045 0.472-0.136 1.146-0.72 1.797-1.899 1.908-3.405 2.128 1.798 2.318 4.245 2.318 5.052 0 2.997-2.63 5.435-5.862 5.435s-5.862-2.438-5.862-5.435c0-1.472 0.767-2.391 1.655-3.455 1.071-1.285 2.363-2.835 1.96-5.5zM12.509 7.716c1.949 5.544-3.259 6.007-3.259 10.247 0 3.491 3.022 6.322 6.75 6.322s6.75-2.831 6.75-6.322c0-1.704-0.69-4.972-4.19-6.758 0.34 1.931-0.083 3.534-1.397 4.36 1.079-2.11 1.097-6.609-4.654-7.849v0z"></path>
</svg>
<svg id="icon_b_wiki" width="32" height="32" viewBox="0 0 32 32" x="0" y="630">
<path fill="#e9f1fd" d="M7.040 2.001h17.92c1.238 0 2.24 1.002 2.24 2.24v23.52c0 1.238-1.002 2.24-2.24 2.24h-17.92c-1.238 0-2.24-1.002-2.24-2.24v-23.521c0-1.237 1.003-2.239 2.24-2.239z"></path>
<path fill="#649cf1" d="M24.96 3.751c0.27 0 0.49 0.22 0.49 0.49v23.52c0 0.27-0.22 0.49-0.49 0.49h-17.92c-0.27 0-0.49-0.22-0.49-0.49v-23.521c0-0.27 0.22-0.489 0.49-0.489h17.92zM24.96 2.001h-17.92c-1.237 0-2.24 1.002-2.24 2.239v23.521c0 1.238 1.002 2.24 2.24 2.24h17.92c1.238 0 2.24-1.002 2.24-2.24v-23.52c0-1.238-1.002-2.24-2.24-2.24v0z"></path>
<path fill="#649cf1" d="M11.239 19.36h9.519c0.464 0 0.84 0.376 0.84 0.84s-0.376 0.84-0.84 0.84h-9.519c-0.464 0-0.84-0.376-0.84-0.84s0.378-0.84 0.84-0.84z"></path>
<path fill="#649cf1" d="M11.239 23.279h5.039c0.464 0 0.84 0.376 0.84 0.84s-0.376 0.84-0.84 0.84h-5.039c-0.464 0-0.84-0.376-0.84-0.84 0-0.465 0.378-0.84 0.84-0.84z"></path>
<path fill="#e9f1fd" d="M15.441 2.001h7.841v11.2l-3.92-2.24-3.92 2.24c-0.001-0.001-0.001-11.2-0.001-11.2z"></path>
<path fill="#649cf1" d="M21.532 3.751v6.434l-1.302-0.743c-0.269-0.154-0.569-0.231-0.868-0.231s-0.599 0.077-0.868 0.231l-1.302 0.744c0-2.058 0-4.716 0-6.435h4.34zM23.282 2.001h-7.841c0 0 0 11.199 0.001 11.2l3.92-2.24 3.92 2.24v-11.2z"></path>
</svg>
<svg id="icon_zhinan" width="32" height="32" viewBox="0 0 32 32" x="0" y="672">
<path fill="#e0f7f2" d="M16 2c7.732 0 14 6.268 14 14s-6.268 14-14 14-14-6.268-14-14 6.268-14 14-14z"></path>
<path fill="#23c5a3" d="M17.373 23.792c0 0-0.228 1.164-1.565 1.164-1.338 0-1.565-1.164-1.565-1.164s0.776 0.259 1.555 0.259c0.786 0.001 1.575-0.259 1.575-0.259z"></path>
<path fill="#23c5a3" d="M15.481 6.667c0-0.286 0.232-0.518 0.519-0.518h-0.259c0.286 0 0.519 0.232 0.519 0.518v1.556c0 0.286-0.232 0.518-0.519 0.518h0.259c-0.286 0-0.519-0.232-0.519-0.518v-1.556z"></path>
<path fill="#23c5a3" d="M20.926 14.185c0-0.286 0.232-0.518 0.519-0.518h1.555c0.286 0 0.519 0.232 0.519 0.518v-0.259c0 0.286-0.232 0.519-0.519 0.519h-1.556c-0.286 0-0.519-0.232-0.519-0.519v0.259z"></path>
<path fill="#23c5a3" d="M7.704 14.185c0-0.286 0.232-0.518 0.519-0.518h1.556c0.286 0 0.519 0.232 0.519 0.518v-0.259c0 0.286-0.232 0.519-0.519 0.519h-1.557c-0.286 0-0.519-0.232-0.519-0.519v0.259z"></path>
<path fill="#23c5a3" d="M9.807 8.823c0.101-0.101 0.223-0.152 0.367-0.152s0.265 0.051 0.367 0.152l1.1 1.1c0.202 0.202 0.202 0.531 0 0.733l0.183-0.183c-0.202 0.203-0.531 0.203-0.733 0l-1.1-1.1c-0.102-0.101-0.153-0.223-0.153-0.366s0.051-0.266 0.152-0.367l-0.183 0.183z"></path>
<path fill="#23c5a3" d="M21.338 8.653c0.101 0.101 0.152 0.223 0.152 0.367s-0.051 0.265-0.152 0.367l-1.063 1.063c-0.101 0.101-0.223 0.152-0.367 0.152-0.143 0-0.265-0.051-0.367-0.152l0.195 0.195c-0.101-0.101-0.152-0.223-0.152-0.367s0.051-0.265 0.152-0.367l1.063-1.063c0.101-0.101 0.223-0.152 0.367-0.152 0.143 0 0.265 0.051 0.367 0.152l-0.195-0.195z"></path>
<path fill="#23c5a3" d="M14.169 12.784c0.286 0 0.519 0.346 0.519 0.774s-0.232 0.774-0.519 0.774-0.519-0.346-0.519-0.774c0-0.428 0.233-0.774 0.519-0.774z"></path>
<path fill="#23c5a3" d="M17.252 12.784c0.284 0 0.514 0.346 0.514 0.774s-0.23 0.774-0.514 0.774-0.514-0.346-0.514-0.774c-0.001-0.428 0.23-0.774 0.514-0.774z"></path>
<path fill="#23c5a3" d="M15.711 10.614c0.991 0 1.778 0.84 2.265 1.545 1.31 1.898 1.769 4.598 1.557 5.156-0.368 0.969-1.537 1.247-1.544 1.248l-0.489 0.105-0.091 0.492-0.281 1.523c-0.529 0.242-0.935 0.283-1.148 0.283-0.073 0-0.121-0.005-0.125-0.005l-0.153-0.023-0.136 0.023c-0.021 0.004-0.074 0.009-0.154 0.009-0.203 0-0.588-0.039-1.088-0.269l-0.277-1.527-0.089-0.492-0.489-0.107c-0.011-0.002-1.153-0.277-1.516-1.247-0.216-0.579 0.236-3.329 1.553-5.226 0.471-0.678 1.236-1.488 2.205-1.488zM15.711 9.864c-3.305 0-4.976 6.347-4.46 7.728s2.059 1.717 2.059 1.717l0.343 1.889c0.777 0.444 1.41 0.523 1.76 0.523 0.191 0 0.298-0.023 0.298-0.023s0.096 0.019 0.27 0.019c0.348 0 1.005-0.076 1.818-0.534l0.348-1.886c0 0 1.564-0.337 2.088-1.715 0.522-1.38-1.22-7.718-4.524-7.718v0z"></path>
<path fill="#23c5a3" d="M15.71 18.311c-0.781 0-1.344-0.245-1.671-0.728-0.618-0.913-0.073-2.304-0.049-2.363 0.068-0.171 0.253-0.271 0.433-0.226 0.007 0.001 0.71 0.162 1.288 0.162 0.58 0 1.281-0.161 1.288-0.162 0.182-0.042 0.364 0.054 0.434 0.226 0.023 0.059 0.567 1.45-0.051 2.363-0.328 0.482-0.89 0.728-1.672 0.728zM14.593 15.792c-0.104 0.397-0.183 1.001 0.069 1.371 0.179 0.264 0.532 0.397 1.049 0.397s0.871-0.134 1.050-0.398c0.264-0.39 0.161-1.006 0.066-1.369-0.58 0.103-1.655 0.103-2.234-0.001z"></path>
<path fill="#23c5a3" d="M15.71 23.291c-1.466 0-2.083-0.559-2.148-0.622-0.149-0.145-0.152-0.382-0.008-0.53 0.144-0.146 0.377-0.15 0.526-0.012 0.018 0.016 0.489 0.414 1.63 0.414 1.159 0 1.626-0.41 1.63-0.414 0.152-0.138 0.39-0.129 0.528 0.020 0.14 0.149 0.137 0.38-0.010 0.522-0.064 0.063-0.68 0.622-2.148 0.622z"></path>
</svg>
<svg id="icon_b_gujia" width="32" height="32" viewBox="0 0 32 32" x="0" y="714">
<path fill="#e9f1fd" d="M16 2c7.732 0 14 6.268 14 14s-6.268 14-14 14c-7.732 0-14-6.268-14-14s6.268-14 14-14z"></path>
<path fill="#649cf1" d="M15.708 10.75h0.583v9.333h-0.583v-9.333z"></path>
<path fill="#649cf1" d="M16 16.583c0.322 0 0.583 0.261 0.583 0.583v4.375h-1.167v-4.375c0.001-0.321 0.262-0.583 0.584-0.583z"></path>
<path fill="#649cf1" d="M13.083 20.958h5.833v0.875h-5.833v-0.875z"></path>
<path fill="#649cf1" d="M11.042 11.625h0.875l-2.042 4.958h-0.875l2.042-4.958z"></path>
<path fill="#649cf1" d="M11.917 11.625h-0.875l2.042 4.958h0.875l-2.042-4.958z"></path>
<path fill="#649cf1" d="M9 16.583h4.958v0.875h-4.958v-0.875z"></path>
<path fill="#649cf1" d="M18.042 16.583h4.958v0.875h-4.958v-0.875z"></path>
<path fill="#649cf1" d="M20.083 11.625h0.875l-2.042 4.958h-0.875l2.042-4.958z"></path>
<path fill="#649cf1" d="M20.958 11.625h-0.875l2.042 4.958h0.875l-2.042-4.958z"></path>
<path fill="#649cf1" d="M20.318 12.435l-0.218-0.179c-0.006-0.003-1.053-0.777-4.1-0.777-3.046 0-4.094 0.773-4.104 0.781l-0.217 0.166-2-0.993c-0.216-0.108-0.304-0.371-0.195-0.587s0.369-0.305 0.587-0.195l1.528 0.764c0.501-0.282 1.791-0.81 4.401-0.81s3.9 0.528 4.401 0.81l1.528-0.764c0.213-0.108 0.478-0.021 0.587 0.195 0.107 0.216 0.021 0.479-0.196 0.587l-2.002 1.002z"></path>
</svg>
<svg id="icon_wenda" width="32" height="32" viewBox="0 0 32 32" x="0" y="756">
<path fill="#ccefe0" d="M21.337 21.6c-4.855 0-8.803-3.948-8.803-8.8s3.948-8.8 8.8-8.8 8.8 3.948 8.8 8.8v8.8h-8.797z"></path>
<path fill="#394043" d="M21.333 4.8c4.411 0 8 3.588 8 8v8h-8.035c-4.395-0.019-7.965-3.601-7.965-8 0-4.411 3.588-8 8-8zM21.333 3.2c-5.302 0-9.6 4.298-9.6 9.6s4.299 9.6 9.6 9.6c0.001 0 0.002 0 0.003 0h9.597v-9.6c0-5.302-4.299-9.6-9.6-9.6v0z"></path>
<path fill="#fff" d="M1.867 28v-10.933c0-6.029 4.905-10.933 10.933-10.933s10.933 4.905 10.933 10.933c0 6.029-4.905 10.933-10.933 10.933h-10.933z"></path>
<path fill="#394043" d="M12.8 6.933c5.587 0 10.133 4.546 10.133 10.133s-4.546 10.133-10.133 10.133h-10.133v-10.133c0-5.587 4.546-10.133 10.133-10.133zM12.8 5.333c-6.48 0-11.733 5.253-11.733 11.733v11.733h11.733c6.48 0 11.733-5.252 11.733-11.733 0-6.48-5.253-11.733-11.733-11.733v0z"></path>
<path fill="#394043" d="M16.533 16h2.133v2.133h-2.133v-2.133z"></path>
<path fill="#394043" d="M11.733 16h2.133v2.133h-2.133v-2.133z"></path>
<path fill="#394043" d="M6.933 16h2.133v2.133h-2.133v-2.133z"></path>
</svg>
<svg id="icon_baike" width="32" height="32" viewBox="0 0 32 32" x="0" y="798">
	<g>
		<g>
			<path fill-rule="evenodd" clip-rule="evenodd" fill="#CCEFE0" d="M4.769,2.616h6.461v24.769H4.769V2.616z"/>
		</g>
		<g>
			<path fill="#394043" d="M24.692,2.616c0.297,0,0.538,0.242,0.538,0.539v23.692c0,0.297-0.242,0.539-0.538,0.539H5.308
				c-0.297,0-0.538-0.242-0.538-0.539V3.154c0-0.297,0.242-0.539,0.538-0.539H24.692 M24.692,1H5.308
				c-1.19,0-2.154,0.964-2.154,2.154v23.692c0,1.19,0.964,2.154,2.154,2.154h19.384c1.189,0,2.154-0.964,2.154-2.154V3.154
				C26.846,1.965,25.882,1,24.692,1L24.692,1z"/>
		</g>
		<g>
			<path fill="#394043" d="M21.461,2.615v7.633l-2.038-1.005l-0.724-0.357l-0.72,0.365l-1.902,0.964V2.615H21.461 M23.077,1h-8.615
				v11.846l4.248-2.154l4.367,2.154V1L23.077,1z"/>
		</g>
	</g>
</svg>
<svg id="icon_lanmu" width="32" height="32" viewBox="0 0 32 32" x="0" y="840">
<path fill="#ccefe0" d="M4.796 2.768h22.314v8.806h-22.314v-8.806z"></path>
<path fill="#394043" d="M26.233 2.772c0.314 0 0.569 0.255 0.569 0.569v25.285l-11.087-7.54-10.516 7.153v-24.898c0-0.314 0.255-0.569 0.569-0.569h20.466zM26.233 1.067h-20.465c-1.257 0-2.274 1.018-2.274 2.274v25.494c0 0.804 0.42 1.507 1.050 1.911l11.172-7.598 11.299 7.684 0.047 0.048 0.048 0.052c0.82-0.343 1.397-1.153 1.397-2.098v-25.494c0-1.257-1.018-2.274-2.274-2.274v0z"></path>
<path fill="#394043" d="M4.63 11.295h22.172v1.706h-22.172v-1.706z"></path>
<path fill="#394043" d="M16.284 5.61c0.785 0 1.421 0.637 1.421 1.421s-0.637 1.421-1.421 1.421c-0.785 0-1.421-0.637-1.421-1.421s0.637-1.421 1.421-1.421z"></path>
</svg>
<svg id="icon_fangjia" width="32" height="32" viewBox="0 0 32 32" x="0" y="882">
<path fill="#ccefe0" d="M15.712 5.661c5.551 0 10.050 4.5 10.050 10.050 0 5.551-4.5 10.050-10.050 10.050s-10.050-4.5-10.050-10.050c-0.001-5.55 4.499-10.050 10.050-10.050z"></path>
<path fill="#394043" d="M10.539 9.966l3.445 6.208h-2.333v1.097h2.951l0.018 0.018v1.521h-2.969v1.097h2.969v2.688h2.050v-2.688h2.987v-1.097h-2.987v-1.521l0.018-0.018h2.969v-1.097h-2.35l3.445-6.208h-2.333l-2.774 5.429-2.774-5.429h-2.333z"></path>
<path fill="#394043" d="M15.712 2.789c7.125 0 12.922 5.797 12.922 12.923s-5.796 12.922-12.922 12.922-12.923-5.797-12.923-12.923 5.797-12.922 12.923-12.922zM15.712 1.067c-8.089 0-14.645 6.557-14.645 14.644s6.557 14.645 14.645 14.645 14.645-6.557 14.645-14.645-6.558-14.644-14.645-14.644v0z"></path>
<path fill="#394043" d="M27.986 25.033l2.336 2.336c0.816 0.816 0.816 2.138 0 2.954-0.816 0.815-2.138 0.815-2.954 0l-2.336-2.336c-0.816-0.816-0.816-2.138 0-2.954 0.815-0.816 2.138-0.816 2.954 0z"></path>
</svg>
<svg id="icon_gujia" width="32" height="32" viewBox="0 0 32 32" x="0" y="924">
<path fill="#ccefe0" d="M16 1.929c7.296 0 13.211 5.915 13.211 13.211s-5.915 13.211-13.211 13.211c-7.296 0-13.211-5.915-13.211-13.211 0-7.297 5.915-13.211 13.211-13.211z"></path>
<path fill="#394043" d="M16 3.651c6.334 0 11.487 5.153 11.487 11.487s-5.153 11.487-11.487 11.487c-6.334 0-11.487-5.153-11.487-11.487s5.153-11.487 11.487-11.487zM16 1.929c-7.296 0-13.211 5.915-13.211 13.211s5.915 13.211 13.211 13.211c7.296 0 13.211-5.915 13.211-13.211 0-7.297-5.915-13.211-13.211-13.211v0z"></path>
<path fill="#394043" d="M14.322 14.954l7.351-10.798 1.218 1.218-7.35 10.798-1.219-1.218z"></path>
<path fill="#fff" d="M7.587 2.8c-3.936 2.689-6.521 7.212-6.521 12.338 0 8.247 6.686 14.933 14.933 14.933s14.933-6.686 14.933-14.933h-14.933l-8.413-12.338z"></path>
<path fill="#394043" d="M7.199 5.289l7.89 11.572h14.010c-0.847 6.474-6.398 11.488-13.099 11.488-7.284 0-13.211-5.926-13.211-13.211 0-3.787 1.622-7.358 4.41-9.85zM7.587 2.8c-3.936 2.689-6.521 7.212-6.521 12.338 0 8.247 6.686 14.933 14.933 14.933s14.933-6.686 14.933-14.933h-14.933l-8.413-12.338z"></path>
</svg>
<svg id="icon_b_xiaoqu" width="32" height="32" viewBox="0 0 32 32" x="0" y="966">
<path fill="#ccefe0" d="M20.425 11.022h6.637v17.699h-6.637v-17.699z"></path>
<path fill="#ccefe0" d="M8.81 11.022h6.637v17.699h-6.637v-17.699z"></path>
<path fill="#394043" d="M15.446 3.892v24.829h-10.508v-21.466l10.508-3.363zM17.106 1.619l-13.827 4.425v24.336h13.827v-28.761z"></path>
<path fill="#394043" d="M27.061 3.922v24.8h-9.955v-21.482l9.955-3.318zM28.721 1.619l-13.275 4.425v24.336h13.274v-28.761h0.001z"></path>
<path fill="#394043" d="M1.067 28.721h29.867v1.66h-29.867v-1.66z"></path>
</svg>
<svg id="icon_jingjiren" width="32" height="32" viewBox="0 0 32 32" x="0" y="1008">
<path fill="#394043" d="M18.634 2.667l-1.149 3.733h-5.103l-1.149-3.733h7.401zM20.8 1.067h-11.733l2.133 6.933h7.467l2.133-6.933z"></path>
<path fill="#ccefe0" d="M11.2 7.467h4.267v22.933l-8-8 3.733-14.933z"></path>
<path fill="#394043" d="M17.514 8l4.65 13.95-7.017 6.786-7.434-6.815 4.64-13.921h5.161zM18.667 6.4h-7.467l-5.333 16 9.31 8.533 8.823-8.533-5.333-16z"></path>
<path fill="#394043" d="M25.067 19.733l-4.267-11.2 5.333 6.933z"></path>
</svg>
<svg id="icon_shuifei" width="32" height="32" viewBox="0 0 32 32" x="0" y="1050">
<path fill="#ccefe0" d="M16.574 2.789h12.636v12.062h-12.636v-12.062z"></path>
<path fill="#ccefe0" d="M7.958 5.662h1.723v6.318h-1.723v-6.318z"></path>
<path fill="#ccefe0" d="M21.744 23.467h1.723v1.723h-1.723v-1.723z"></path>
<path fill="#ccefe0" d="M21.744 20.020h1.723v1.723h-1.723v-1.723z"></path>
<path fill="#ccefe0" d="M5.662 21.744h6.318v1.723h-6.318v-1.723z"></path>
<path fill="#ccefe0" d="M5.662 7.958h6.318v1.723h-6.318v-1.723z"></path>
<path fill="#394043" d="M28.636 2.789c0.317 0 0.574 0.258 0.574 0.574v25.271c0 0.317-0.258 0.574-0.574 0.574h-25.271c-0.317 0-0.574-0.258-0.574-0.574v-25.27c0-0.317 0.258-0.574 0.574-0.574h25.271zM28.636 1.067h-25.271c-1.269 0-2.298 1.028-2.298 2.298v25.271c0 1.269 1.028 2.298 2.298 2.298h25.271c1.269 0 2.298-1.028 2.298-2.298v-25.271c0-1.269-1.028-2.298-2.298-2.298v0z"></path>
<path fill="#394043" d="M14.851 1.067h1.723v29.867h-1.723v-29.867z"></path>
<path fill="#394043" d="M1.067 14.851h29.867v1.723h-29.867v-1.723z"></path>
<path fill="#394043" d="M19.446 6.236h6.893v1.723h-6.893v-1.723z"></path>
<path fill="#394043" d="M19.446 9.682h6.893v1.723h-6.893v-1.723z"></path>
</svg>
<svg id="icon_daikuan" width="32" height="32" viewBox="0 0 32 32" x="0" y="1092">
<path fill="#ccefe0" d="M2.215 2.789h26.995v12.636h-26.995v-12.636z"></path>
<path fill="#394043" d="M14.997 4.91h-2.681v1.34h1.34v4.020h-1.34v1.34h4.020v-1.34h-1.34v-5.36z"></path>
<path fill="#394043" d="M19.018 8.93h2.681v-4.020h-4.020v1.34h2.681v1.34h-2.681v4.020h4.020v-1.34h-2.681v-1.34z"></path>
<path fill="#394043" d="M27.059 4.91h-4.020v1.34h2.681v1.34h-2.681v1.34h2.681v1.34h-2.681v1.34h4.020v-6.699z"></path>
<path fill="#394043" d="M28.636 2.789c0.317 0 0.574 0.258 0.574 0.574v25.271c0 0.317-0.258 0.574-0.574 0.574h-25.271c-0.317 0-0.574-0.258-0.574-0.574v-25.27c0-0.317 0.258-0.574 0.574-0.574h25.271zM28.636 1.067h-25.271c-1.269 0-2.298 1.028-2.298 2.298v25.271c0 1.269 1.028 2.298 2.298 2.298h25.271c1.269 0 2.298-1.028 2.298-2.298v-25.271c0-1.269-1.028-2.298-2.298-2.298v0z"></path>
<path fill="#394043" d="M1.067 14.851h29.867v1.723h-29.867v-1.723z"></path>
<path fill="#ccefe0" d="M7.959 20.020h1.723v6.318h-1.723v-6.318z"></path>
<path fill="#ccefe0" d="M5.662 22.318h6.318v1.723h-6.318v-1.723z"></path>
<path fill="#ccefe0" d="M20.020 22.318h6.318v1.723h-6.318v-1.723z"></path>
<path fill="#394043" d="M14.851 14.851h1.723v16.082h-1.723v-16.082z"></path>
</svg>
<svg id="icon_kefu" width="32" height="32" viewBox="0 0 32 32" x="0" y="1134">
<path fill="#ccefe0" d="M14.4 17.6c0 0-2.893 1.067-4.8 1.067 1.067-1.358 2.133-3.2 2.133-3.2l2.667 2.133z"></path>
<path fill="#ccefe0" d="M16 8c2.945 0 5.333 2.388 5.333 5.333s-2.388 5.333-5.333 5.333-5.333-2.388-5.333-5.333c0-2.945 2.388-5.333 5.333-5.333z"></path>
<path fill="#394043" d="M24.533 2.667c0.294 0 0.533 0.239 0.533 0.533v25.6c0 0.294-0.239 0.533-0.533 0.533h-17.067c-0.294 0-0.533-0.239-0.533-0.533v-25.6c0-0.294 0.239-0.533 0.533-0.533h17.067zM24.533 1.067h-17.067c-1.179 0-2.133 0.956-2.133 2.133v25.6c0 1.178 0.955 2.133 2.133 2.133h17.067c1.179 0 2.133-0.955 2.133-2.133v-25.6c0-1.178-0.955-2.133-2.133-2.133v0z"></path>
<path fill="#394043" d="M5.333 23.467h21.333v1.6h-21.333v-1.6z"></path>
<path fill="#394043" d="M16 26.133c0.589 0 1.067 0.478 1.067 1.067s-0.478 1.067-1.067 1.067c-0.589 0-1.067-0.478-1.067-1.067s0.478-1.067 1.067-1.067z"></path>
</svg>
<svg id="icon_xiaoqu" width="32" height="32" viewBox="0 0 32 32" x="0" y="1176">
	<g>
		<path fill-rule="evenodd" clip-rule="evenodd" fill="#25BFA7" d="M16,2c7.732,0,14,6.268,14,14c0,7.732-6.268,14-14,14
			C8.268,30,2,23.732,2,16C2,8.268,8.268,2,16,2z"/>
		<path fill="#FFFFFF" d="M15.708,11.885v8.49h-3.792v-7.492L15.708,11.885 M16.583,10.75l-5.542,1.458v9.042h5.542V10.75
			L16.583,10.75z"/>
		<path fill="#FFFFFF" d="M20.083,11.901v8.474h-3.5v-7.502L20.083,11.901 M20.958,10.75l-5.25,1.458v9.042h5.25V10.75L20.958,10.75z
			"/>
		<path fill-rule="evenodd" clip-rule="evenodd" fill="#FFFFFF" d="M13.667,13.958h0.875v6.417h-0.875V13.958z"/>
		<path fill-rule="evenodd" clip-rule="evenodd" fill="#FFFFFF" d="M18.042,13.958h0.875v6.417h-0.875V13.958z"/>
		<g>
			<g>
				<path fill-rule="evenodd" clip-rule="evenodd" fill="#FFFFFF" d="M21.688,20.375H10.312c-0.242,0-0.438,0.196-0.438,0.437
					c0,0.242,0.196,0.437,0.438,0.437h11.375c0.242,0,0.438-0.196,0.438-0.437C22.125,20.571,21.929,20.375,21.688,20.375z"/>
			</g>
		</g>
	</g>
</svg>
<svg id="icon_app" width="32" height="32" viewBox="0 0 32 32" x="0" y="1218">
	<g>
		<path fill-rule="evenodd" clip-rule="evenodd" fill="#71CCE3" d="M16,2c7.732,0,14,6.268,14,14s-6.268,14-14,14S2,23.732,2,16
			S8.268,2,16,2z"/>
		<path fill="#FFFFFF" d="M16.583,11.333v2.917v0.875h0.875H17.6L16,17.598l-1.6-2.473h0.142h0.875V14.25v-2.917H16.583
			 M17.458,10.458h-2.917v3.792h-1.75L16,19.208l3.208-4.958h-1.75V10.458L17.458,10.458z"/>
		<g>
			<g>
				<polygon fill-rule="evenodd" clip-rule="evenodd" fill="#FFFFFF" points="19.792,17.75 19.792,20.667 12.208,20.667
					12.208,17.75 11.333,17.75 11.333,21.542 20.667,21.542 20.667,17.75 			"/>
			</g>
		</g>
	</g>
</svg>
<svg id="icon_linshen" x="0" y="1260" width="32" height="32" viewBox="0 0 32 32">
<g>
	<path fill-rule="evenodd" clip-rule="evenodd" fill="#74B6D9" d="M16,2c7.732,0,14,6.268,14,14s-6.268,14-14,14S2,23.732,2,16
		S8.268,2,16,2z"/>
	<path fill-rule="evenodd" clip-rule="evenodd" fill="#FFFFFF" d="M16,14.833c0.644,0,1.167,0.522,1.167,1.167
		S16.644,17.167,16,17.167S14.833,16.644,14.833,16S15.356,14.833,16,14.833z"/>
	<path fill-rule="evenodd" clip-rule="evenodd" fill="none" stroke="#FFFFFF" stroke-width="0.875" stroke-miterlimit="10" d="
		M14.561,12.493c-1.38,0.567-2.353,1.923-2.353,3.507c0,2.094,1.698,3.792,3.792,3.792s3.792-1.698,3.792-3.792
		c0-1.584-0.973-2.94-2.353-3.507"/>
	<path fill-rule="evenodd" clip-rule="evenodd" fill="none" stroke="#FFFFFF" stroke-width="0.875" stroke-miterlimit="10" d="
		M21.798,13.249c-1.03-2.167-3.239-3.666-5.798-3.666c-3.544,0-6.417,2.873-6.417,6.417s2.873,6.417,6.417,6.417
		c2.559,0,4.768-1.498,5.798-3.666"/>
</g>
</svg>
<svg id="icon_goufang"  x="0" y="1302" width="32" height="32" viewBox="0 0 32 32">
<g>
	<polygon fill-rule="evenodd" clip-rule="evenodd" fill="#CCEFE0" points="18.121,12.353 14.519,4.591 14.519,23.586 21.943,27.723
		20.349,19.294 26.533,13.423 	"/>
	<path fill="#394043" d="M22.864,29.001l-8.348-4.653l-8.348,4.653l1.792-9.474l-6.94-6.589l9.441-1.202L14.516,3l4.055,8.737
		l9.441,1.202l-6.939,6.589L22.864,29.001z M3.978,13.907l5.428,5.153L8.01,26.446l6.506-3.626l6.506,3.626l-1.396-7.386
		l5.428-5.153l-7.383-0.939L14.516,6.17l-3.155,6.798L3.978,13.907z"/>
	<path fill-rule="evenodd" clip-rule="evenodd" fill="#394043" d="M22.75,8.596h7.564c0.369,0,0.667,0.299,0.667,0.667
		c0,0.369-0.299,0.667-0.667,0.667H22.75c-0.369,0-0.667-0.299-0.667-0.667C22.083,8.895,22.381,8.596,22.75,8.596z"/>
	<path fill-rule="evenodd" clip-rule="evenodd" fill="#394043" d="M28.534,15.715h1.78c0.369,0,0.667,0.299,0.667,0.667
		c0,0.369-0.299,0.667-0.667,0.667h-1.78c-0.369,0-0.667-0.299-0.667-0.667C27.867,16.013,28.165,15.715,28.534,15.715z"/>
	<path fill-rule="evenodd" clip-rule="evenodd" fill="#394043" d="M25.864,21.944h4.449c0.369,0,0.667,0.299,0.667,0.667
		c0,0.369-0.299,0.667-0.667,0.667h-4.449c-0.369,0-0.667-0.299-0.667-0.667C25.197,22.242,25.496,21.944,25.864,21.944z"/>
</g>
</svg>

<svg id="icon_shoufu" x="0" y="1344" width="32" height="32" viewBox="0 0 32 32">
<g>
	<path fill="none" d="M-171.5-276.5c0-14.359-11.641-26-26-26s-26,11.641-26,26c0,6.584,2.452,12.592,6.487,17.173
		c-0.481,1.416-0.486,2.633-0.486,2.633s9.92,8.194,20.261,8.194c9.634,0,19.739-8.196,19.739-8.196
		c0.008-1.007-0.143-1.906-0.425-2.701C-173.928-263.97-171.5-269.95-171.5-276.5z"/>
</g>
<g>
	<path fill="#394043" d="M25.064,25.627H4.346c-1.292,0-2.343-0.979-2.343-2.184V10.907c0-1.204,1.051-2.184,2.343-2.184h20.719
		c1.292,0,2.344,0.979,2.344,2.184v12.536C27.408,24.647,26.356,25.627,25.064,25.627z M4.346,9.957c-0.612,0-1.11,0.426-1.11,0.95
		v12.536c0,0.523,0.498,0.949,1.11,0.949h20.719c0.612,0,1.109-0.426,1.109-0.949V10.907c0-0.524-0.497-0.95-1.109-0.95H4.346z"/>
	<path fill="#394043" d="M29.381,22.95c-0.341,0-0.617-0.276-0.617-0.617V8.557c0-0.524-0.497-0.951-1.109-0.951H5.281
		c-0.341,0-0.617-0.276-0.617-0.617S4.94,6.373,5.281,6.373h22.374c1.292,0,2.344,0.979,2.344,2.184v13.776
		C29.998,22.674,29.722,22.95,29.381,22.95z"/>
	<path fill-rule="evenodd" clip-rule="evenodd" fill="#CCEFE0" d="M14.705,12.083c3.099,0,5.611,2.28,5.611,5.093
		s-2.512,5.093-5.611,5.093s-5.611-2.28-5.611-5.093S11.606,12.083,14.705,12.083z"/>
	<g>
		<g>
			<polygon fill-rule="evenodd" clip-rule="evenodd" fill="#394043" points="17.595,14.558 16.341,14.558 14.85,17.204 
				13.359,14.558 12.105,14.558 13.957,17.583 12.704,17.583 12.704,18.117 14.29,18.117 14.299,18.126 14.299,18.867 
				12.704,18.867 12.704,19.402 14.299,19.402 14.299,20.712 15.401,20.712 15.401,19.402 17.006,19.402 17.006,18.867 
				15.401,18.867 15.401,18.126 15.411,18.117 17.006,18.117 17.006,17.583 15.743,17.583 			"/>
		</g>
	</g>
</g>
</svg>

<svg id="icon_lanren" x="0" y="1386" width="32" height="32" viewBox="0 0 32 32">
<g>
	<g>
		<g>
			<ellipse fill-rule="evenodd" clip-rule="evenodd" fill="#CAE6DA" cx="16" cy="16.464" rx="9.873" ry="9.27"/>
		</g>
	</g>
	<path fill="#393F43" d="M3.389,8.182H1.955V5.339c0-1.417,1.208-2.57,2.692-2.57h3.948v1.435H4.646
		c-0.693,0-1.257,0.51-1.257,1.136V8.182z"/>
	<path fill="#393F43" d="M30.046,9.028H28.61V5.34c0-0.626-0.563-1.136-1.257-1.136h-3.639V2.769h3.639
		c1.484,0,2.692,1.153,2.692,2.571V9.028z"/>
	<path fill="#393F43" d="M8.681,29.231H4.646c-1.484,0-2.692-1.153-2.692-2.571v-4.007h1.435v4.007c0,0.626,0.564,1.136,1.257,1.136
		h4.035V29.231z"/>
	<path fill="#393F43" d="M27.354,29.231h-3.998v-1.436h3.998c0.693,0,1.257-0.51,1.257-1.136v-5.126h1.436v5.126
		C30.046,28.078,28.838,29.231,27.354,29.231z"/>
	<path fill="#394043" d="M16.088,11.751l3.604,7.603l-3.11-1.338l-0.554-0.238l-0.558,0.229l-3.129,1.285L16.088,11.751
		 M16.104,9.432c-0.283,0-0.541,0.151-0.658,0.386l-5.302,10.668c-0.124,0.248-0.065,0.541,0.146,0.733
		c0.138,0.126,0.322,0.193,0.51,0.193c0.1,0,0.201-0.019,0.297-0.058l4.917-2.019l4.877,2.098c0.098,0.042,0.203,0.063,0.307,0.063
		c0.183,0,0.364-0.063,0.501-0.184l0.004-0.004c0.212-0.19,0.274-0.479,0.157-0.727L16.764,9.828
		c-0.113-0.238-0.37-0.393-0.655-0.396C16.107,9.432,16.106,9.432,16.104,9.432L16.104,9.432z"/>
</g>
</svg>
<svg id="icon_lvju" width="32" height="32" viewBox="0 0 32 32" x="0" y="1428">
    <!-- Generator: Sketch 44.1 (41455) - http://www.bohemiancoding.com/sketch -->
    <title>旅居R</title>
    <desc>Created with Sketch.</desc>
    <defs></defs>
    <g id="Page-1" stroke="none" stroke-width="1" fill="none" fill-rule="evenodd">
        <g id="旅居R">
            <circle id="椭圆_84" fill="#0DBEEC" fill-rule="nonzero" cx="16" cy="16" r="16"></circle>
            <path d="M21.4436667,22.9363333 C21.3383575,22.9993511 21.2117588,23.0162632 21.0936007,22.9830983 C20.9754425,22.9499333 20.8761353,22.8696131 20.819,22.761 L19.7236667,21.3793333 C19.597204,21.151603 19.670303,20.8647627 19.8903333,20.7253333 C19.9956192,20.6622166 20.1222525,20.6452489 20.2404404,20.6784223 C20.3586282,20.7115956 20.4579361,20.7919811 20.515,20.9006667 L21.61,22.2823333 C21.7367022,22.5099564 21.6637226,22.7969021 21.4436667,22.9363333 Z M16.1666667,11.4166667 L14.6666667,14.6666667 L13.6666667,14.6666667 L15.6666667,10.3333333 L15.6666667,9.5 C15.6666667,9.22385763 15.8905243,9 16.1666667,9 C16.442809,9 16.6666667,9.22385763 16.6666667,9.5 L16.6666667,10.3333333 L18.6666667,14.6666667 L17.6666667,14.6666667 L16.1666667,11.4166667 Z M16.6666667,18 L15.6666667,18 L15.6666667,15 L16.6666667,15 L16.6666667,18 Z" id="矩形_372_拷贝" fill="#FFFFFF"></path>
            <rect id="矩形_2813" fill="#FFFFFF" fill-rule="nonzero" x="15.6666667" y="20.6666667" width="1" height="2"></rect>
            <polygon id="矩形_370" stroke="#FFFFFF" points="16.162 9.66666667 8.99533333 15.006 23.3303333 15.006"></polygon>
            <g id="组_1" transform="translate(9.666667, 16.666667)" stroke="#FFFFFF" stroke-linecap="round">
                <path d="M12,0 C12,0 10.698,2.66666667 10,2.66666667 L2.66666667,2.66666667 C1.226,2.66666667 1.15533333,3.38266667 0,5.33333333" id="形状_284"></path>
            </g>
        </g>
    </g>
</svg>

</svg>
