<svg xmlns="http://www.w3.org/2000/svg" xmlns:xlink="http://www.w3.org/1999/xlink" width="32" height="998" viewBox="0 0 32 998"><svg width="32" height="32" viewBox="0 0 32 32"><path fill="#aaa" d="M23.752 15.742L10.014 2 8.248 3.767 20.479 16 8.248 28.234 10.014 30l13.738-13.741-.258-.259z"/></svg><svg width="32" height="32" viewBox="0 0 32 32" y="42"><path fill="#fff" d="M27.072 2C29.19 2 30 3.306 30 5.204v22.337C30 28.725 28.848 30 27.384 30H4.429C3.152 30 2 28.818 2 27.355V4.582C2 3.089 2.903 2 4.274 2h22.798zm-.983 2.916H5.88a.853.853 0 0 0-.855.853v10.947c.824.976 2.686 2.714 5.495 2.714 6.594 0 7.754-6.953 16.454-7.318V5.769c.001-.457-.396-.853-.885-.853zm-15.7 2.687a2.814 2.814 0 0 1 2.816 2.801 2.795 2.795 0 0 1-2.816 2.801 2.788 2.788 0 0 1-2.786-2.801c0-1.536 1.258-2.801 2.786-2.801z"/></svg><svg width="32" height="32" viewBox="0 0 32 32" y="84"><path fill="#ccc" d="M2 8.588h28L15.176 23.412 2 8.588z"/></svg><svg width="32" height="32" viewBox="0 0 32 32" y="126"><path fill="#00ae66" d="M30 23.412H2L16.824 8.588 30 23.412z"/></svg><svg width="32" height="32" viewBox="0 0 32 32" y="168"><path fill="#fff" d="M16.057 23a1 1 0 0 1-.649-.239l-14.057-12A1 1 0 1 1 2.65 9.24l13.405 11.443 13.293-11.44a1 1 0 1 1 1.305 1.515l-13.943 12c-.188.161-.42.242-.653.242z"/></svg><svg width="32" height="32" viewBox="0 0 32 32" y="210"><path fill="#999" d="M23.457 23.045l6.251 6.252-1.414 1.414-6.251-6.252 1.414-1.414zM14.882 27.277c-6.835 0-12.396-5.562-12.396-12.396S8.047 2.485 14.882 2.485s12.396 5.561 12.396 12.396-5.561 12.396-12.396 12.396zm0-22.792c-5.732 0-10.396 4.664-10.396 10.396S9.15 25.277 14.882 25.277s10.396-4.664 10.396-10.396S20.614 4.485 14.882 4.485z"/></svg><svg width="32" height="32" viewBox="0 0 32 32" y="252"><path fill="#fff" d="M16.496 31.875c-5.791 0-10.644-.789-13.315-2.164-.54-.281-.938-.661-1.188-1.135-.318-.564-.314-1.173-.283-1.491.007-.071.013-.117.015-.157 0-3.011 3.935-6.682 8.603-8.152-.994-1.325-1.498-2.949-1.498-4.841V8.658c0-2.102.709-4.044 1.996-5.468 1.351-1.493 3.226-2.315 5.28-2.315 4.606 0 7.015 3.916 7.015 7.783v5.275c0 2.036-.33 3.517-1.056 4.668 4.944 1.369 8.211 5.286 8.211 8.302l.009.107c.117 1.161-.433 2.172-1.469 2.704-2.794 1.434-6.938 2.161-12.32 2.161zM4.718 27.122c2.285 1.09 6.75 1.753 11.778 1.753 4.789 0 8.417-.588 10.787-1.748a3.352 3.352 0 0 1-.008-.224c0-1.446-2.275-4.631-6.625-5.562l-4.142-.887 2.779-3.136c.387-.438.832-1.217.832-3.386V8.658c0-1.776-.846-4.783-4.015-4.783-1.195 0-2.28.471-3.055 1.327-.787.871-1.221 2.099-1.221 3.456v5.276c0 1.449.407 2.577 1.243 3.446l2.902 3.025-4.102 1.047c-4.201 1.074-7.149 4.198-7.149 5.481.002.059 0 .121-.004.189z"/></svg><svg width="32" height="32" viewBox="0 0 32 32" y="294"><path fill="#fff" d="M16 26.429a1.5 1.5 0 0 1-1.5-1.5V2.313a1.5 1.5 0 1 1 3 0v22.616a1.5 1.5 0 0 1-1.5 1.5z"/><path fill="#fff" d="M16.027 27.308c-.257 0-.515-.065-.745-.197a1.523 1.523 0 0 1-.37-.271L5.22 17.146a1.5 1.5 0 1 1 2.121-2.121l8.673 8.674 8.644-8.644a1.5 1.5 0 1 1 2.121 2.121l-9.691 9.692c-.293.293-.677.44-1.061.44zM30 31.946H2a1.5 1.5 0 1 1 0-3h28a1.5 1.5 0 0 1 0 3z"/></svg><svg width="32" height="32" viewBox="0 0 32 32" y="336"><path fill="#00ae66" d="M16.496 31.875c-5.791 0-10.644-.789-13.315-2.164-.54-.281-.938-.661-1.188-1.135-.318-.564-.314-1.173-.283-1.491.007-.071.013-.117.015-.157 0-3.011 3.935-6.682 8.603-8.152-.994-1.325-1.498-2.949-1.498-4.841V8.658c0-2.102.709-4.044 1.996-5.468 1.351-1.493 3.226-2.315 5.28-2.315 4.606 0 7.015 3.916 7.015 7.783v5.275c0 2.036-.33 3.517-1.056 4.668 4.944 1.369 8.211 5.286 8.211 8.302l.009.107c.117 1.161-.433 2.172-1.469 2.704-2.794 1.434-6.938 2.161-12.32 2.161zM4.718 27.122c2.285 1.09 6.75 1.753 11.778 1.753 4.789 0 8.417-.588 10.787-1.748a3.352 3.352 0 0 1-.008-.224c0-1.446-2.275-4.631-6.625-5.562l-4.142-.887 2.779-3.136c.387-.438.832-1.217.832-3.386V8.658c0-1.776-.846-4.783-4.015-4.783-1.195 0-2.28.471-3.055 1.327-.787.871-1.221 2.099-1.221 3.456v5.276c0 1.449.407 2.577 1.243 3.446l2.902 3.025-4.102 1.047c-4.201 1.074-7.149 4.198-7.149 5.481.002.059 0 .121-.004.189z"/></svg><svg width="32" height="32" viewBox="0 0 32 32" y="378"><path fill="#00ae66" d="M16 26.429a1.5 1.5 0 0 1-1.5-1.5V2.313a1.5 1.5 0 1 1 3 0v22.616a1.5 1.5 0 0 1-1.5 1.5z"/><path fill="#00ae66" d="M16.027 27.308c-.257 0-.515-.065-.745-.197a1.523 1.523 0 0 1-.37-.271L5.22 17.146a1.5 1.5 0 1 1 2.121-2.121l8.673 8.674 8.644-8.644a1.5 1.5 0 1 1 2.121 2.121l-9.691 9.692c-.293.293-.677.44-1.061.44zM30 31.946H2a1.5 1.5 0 1 1 0-3h28a1.5 1.5 0 0 1 0 3z"/></svg><svg width="32" height="32" viewBox="0 0 32 32" y="420"><path fill="#666" d="M16.058 23.001a1 1 0 0 1-.649-.239L1.351 10.76A1 1 0 1 1 2.65 9.239l13.406 11.445L29.348 9.242a.999.999 0 1 1 1.305 1.515L16.71 22.759a1 1 0 0 1-.652.242z"/></svg><svg width="32" height="32" viewBox="0 0 32 32" y="462"><path fill="#fff" d="M27.923 13.67h1.756v.362h.216v-.429a.13.13 0 0 0-.13-.13h-.85v-.163h-.252v.164h-.826a.13.13 0 0 0-.13.13v.429h.216v-.363zm.794 1.746h.238c.03-.143.071-.388.077-.666.005-.233-.018-.531-.095-.717h.557v-.197h-1.388v.197h.596a3.835 3.835 0 0 1-.997.315v.209c.29-.042.709-.16 1.057-.326.012.052.022.114.03.184a3.772 3.772 0 0 1-1.088.362v.209c.302-.043.745-.17 1.101-.347v.105l-.004.095a3.745 3.745 0 0 1-1.097.367v.209a4.035 4.035 0 0 0 1.073-.333 2.82 2.82 0 0 1-.06.334zm1.123-1.215h-.315l-.267.266a.292.292 0 0 0-.021.387l.454.562h.285l-.544-.673c-.036-.044-.041-.096.009-.146l.399-.396zm-4.667.257v.197h.24v.557c0 .149.04.204.22.204h.223v-.197h-.223v-.564h.223v-.197h-.223v-.373h.358v1.086c0 .179.015.245.216.245h1.267v-.197h-.391v-.324h.391v-.197h-.391v-.323h.391v-.197h-.391v-.318h-.239v.317h-.26l.11-.487h.78v-.197h-.736l.041-.183h-.217l-.041.183h-.341l-.054-.183h-.224l.091.309a.098.098 0 0 0 .094.071h.389l-.127.564c-.007.029 0 .06.019.083s.047.037.077.037h.397v.323h-.494v.197h.494v.324h-.637v-1.233c0-.054-.063-.099-.117-.099h-.677l.044-.198h.401v-.197h-.357l.04-.183h-.212l-.171.775h.257v.373h-.24v.002zm-22.47-1.16H2v3.443c0 .613.288.925.855.925h1.503v-.673H2.703v-3.695zm13.777 3.681c0 1.01-.258 1.05-.895 1.05v.673c.917 0 1.503-.26 1.562-1.509h.005v-3.895h-.672v3.681zm-11.613.686h.672v-4.367h-.672v4.367zm13.267 0h.672v-4.367h-.672v4.367zm-4.76-4.367c-1.119 0-2.03.929-2.03 2.07v2.291h.672v-2.291c0-.77.609-1.397 1.358-1.397s1.358.627 1.358 1.397v2.291h.672v-2.291c-.001-1.141-.911-2.07-2.03-2.07zm-4.895 0H8.38c-1.12 0-2.066.976-2.066 2.131v.099c0 1.195.901 2.131 2.052 2.131h2.18v-3.872h-.67a2.169 2.169 0 0 0-1.397-.489zm1.395 3.689H8.366c-.864 0-1.381-.741-1.381-1.458v-.099c0-.79.639-1.458 1.395-1.458h.099c.769 0 1.395.518 1.395 1.307v1.708zm11.866-3.689h-.099c-1.12 0-2.066.976-2.066 2.131v.099c0 1.195.901 2.131 2.052 2.131h2.179v-3.872h-.67a2.162 2.162 0 0 0-1.396-.489zm1.395 3.689h-1.508c-.864 0-1.381-.741-1.381-1.458v-.099c0-.79.639-1.458 1.395-1.458h.099c.769 0 1.395.518 1.395 1.307v1.708zm6.328-.738h-.054a.53.53 0 0 0-.392.176.53.53 0 0 0-.392-.176h-.054a.539.539 0 0 0-.537.538v.922h.335v-.922c0-.111.091-.202.202-.202h.054c.111 0 .202.091.202.202v.922h.38v-.922c0-.111.091-.202.202-.202h.054c.111 0 .202.091.202.202v.922H30v-.922a.539.539 0 0 0-.537-.538zm-2.324-.012a.749.749 0 0 0 0 1.498.75.75 0 0 0 0-1.498zm0 1.162a.413.413 0 1 1 .002-.826.413.413 0 0 1-.002.826zm-1.94-.419c0 .403.299.73.668.73h.5v-.336h-.5c-.183 0-.332-.177-.332-.395s.149-.395.332-.395h.5v-.336h-.5c-.369.001-.668.329-.668.732zm-.58.268a.245.245 0 1 0 .001.49.245.245 0 0 0-.001-.49z"/></svg><svg width="32" height="32" viewBox="0 0 32 32" y="504"><path fill="#00ae66" d="M27.923 13.67h1.756v.362h.216v-.429a.13.13 0 0 0-.13-.13h-.85v-.163h-.252v.164h-.826a.13.13 0 0 0-.13.13v.429h.216v-.363zm.794 1.746h.238c.03-.143.071-.388.077-.666.005-.233-.018-.531-.095-.717h.557v-.197h-1.388v.197h.596a3.835 3.835 0 0 1-.997.315v.209c.29-.042.709-.16 1.057-.326.012.052.022.114.03.184a3.772 3.772 0 0 1-1.088.362v.209c.302-.043.745-.17 1.101-.347v.105l-.004.095a3.745 3.745 0 0 1-1.097.367v.209a4.035 4.035 0 0 0 1.073-.333 2.82 2.82 0 0 1-.06.334zm1.123-1.215h-.315l-.267.266a.292.292 0 0 0-.021.387l.454.562h.285l-.544-.673c-.036-.044-.041-.096.009-.146l.399-.396zm-4.667.257v.197h.24v.557c0 .149.04.204.22.204h.223v-.197h-.223v-.564h.223v-.197h-.223v-.373h.358v1.086c0 .179.015.245.216.245h1.267v-.197h-.391v-.324h.391v-.197h-.391v-.323h.391v-.197h-.391v-.318h-.239v.317h-.26l.11-.487h.78v-.197h-.736l.041-.183h-.217l-.041.183h-.341l-.054-.183h-.224l.091.309a.098.098 0 0 0 .094.071h.389l-.127.564c-.007.029 0 .06.019.083s.047.037.077.037h.397v.323h-.494v.197h.494v.324h-.637v-1.233c0-.054-.063-.099-.117-.099h-.677l.044-.198h.401v-.197h-.357l.04-.183h-.212l-.171.775h.257v.373h-.24zm-22.47-1.16H2v3.443c0 .613.288.925.855.925h1.503v-.673H2.703v-3.695zm13.777 3.681c0 1.01-.258 1.05-.895 1.05v.673c.917 0 1.503-.26 1.562-1.509h.005v-3.895h-.672v3.681zm-11.613.686h.672v-4.367h-.672v4.367zm13.267 0h.672v-4.367h-.672v4.367zm-4.76-4.367c-1.119 0-2.03.929-2.03 2.07v2.291h.672v-2.291c0-.77.609-1.397 1.358-1.397s1.358.627 1.358 1.397v2.291h.672v-2.291c-.001-1.141-.911-2.07-2.03-2.07zm-4.895 0H8.38c-1.12 0-2.066.976-2.066 2.131v.099c0 1.195.901 2.131 2.052 2.131h2.18v-3.872h-.67a2.169 2.169 0 0 0-1.397-.489zm1.395 3.689H8.366c-.864 0-1.381-.741-1.381-1.458v-.099c0-.79.639-1.458 1.395-1.458h.099c.769 0 1.395.518 1.395 1.307v1.708zm11.866-3.689h-.099c-1.12 0-2.066.976-2.066 2.131v.099c0 1.195.901 2.131 2.052 2.131h2.179v-3.872h-.67a2.162 2.162 0 0 0-1.396-.489zm1.395 3.689h-1.508c-.864 0-1.381-.741-1.381-1.458v-.099c0-.79.639-1.458 1.395-1.458h.099c.769 0 1.395.518 1.395 1.307v1.708zm6.328-.738h-.054a.53.53 0 0 0-.392.176.53.53 0 0 0-.392-.176h-.054a.539.539 0 0 0-.537.538v.922h.335v-.922c0-.111.091-.202.202-.202h.054c.111 0 .202.091.202.202v.922h.38v-.922c0-.111.091-.202.202-.202h.054c.111 0 .202.091.202.202v.922H30v-.922a.539.539 0 0 0-.537-.538zm-2.324-.012a.749.749 0 0 0 0 1.498.75.75 0 0 0 0-1.498zm0 1.162a.413.413 0 1 1 .002-.826.413.413 0 0 1-.002.826zm-1.94-.419c0 .403.299.73.668.73h.5v-.336h-.5c-.183 0-.332-.177-.332-.395s.149-.395.332-.395h.5v-.336h-.5c-.369.001-.668.329-.668.732zm-.58.268a.245.245 0 1 0 .001.49.245.245 0 0 0-.001-.49z"/></svg><svg width="32" height="32" viewBox="0 0 32 32" y="546"><path fill="#00ae66" d="M14.679 4.896c5.613 0 10.179 4.566 10.179 10.179s-4.566 10.179-10.179 10.179S4.5 20.688 4.5 15.075 9.066 4.896 14.679 4.896zm0-2.5C7.677 2.396 2 8.073 2 15.075s5.677 12.679 12.679 12.679 12.679-5.677 12.679-12.679S21.681 2.396 14.679 2.396zM24.201 22.268l7.25 7-1.736 1.799-7.25-7 1.736-1.799z"/></svg><svg width="32" height="32" viewBox="0 0 32 32" y="588"><path fill="#00ae66" d="M30 17.5H2a1.5 1.5 0 1 1 0-3h28a1.5 1.5 0 1 1 0 3z"/><path fill="#00ae66" d="M2 17.5a1.5 1.5 0 0 1-1.061-2.56l13-13a1.5 1.5 0 1 1 2.121 2.121l-13 13A1.491 1.491 0 0 1 2 17.5z"/><path fill="#00ae66" d="M15 30.5c-.384 0-.768-.146-1.061-.439l-13-13A1.5 1.5 0 1 1 3.06 14.94l13 13A1.5 1.5 0 0 1 15 30.5z"/></svg><svg width="32" height="32" viewBox="0 0 32 32" y="630"><path fill="#fff" d="M10.789 29.818h-2V6.752l-6.131 5.354L1.342 10.6l9.447-8.25zM21.385 30.084V2.617h2v23.065l6.131-5.354 1.316 1.506z"/></svg><svg width="32" height="32" viewBox="0 0 32 32" y="672"><path fill="#444" d="M16 26.429a1.5 1.5 0 0 1-1.5-1.5V2.313a1.5 1.5 0 1 1 3 0v22.616a1.5 1.5 0 0 1-1.5 1.5z"/><path fill="#444" d="M16.027 27.308c-.257 0-.515-.065-.745-.197a1.523 1.523 0 0 1-.37-.271L5.22 17.146a1.5 1.5 0 1 1 2.121-2.121l8.673 8.674 8.644-8.644a1.5 1.5 0 1 1 2.121 2.121l-9.691 9.692c-.293.293-.677.44-1.061.44zM30 31.946H2a1.5 1.5 0 1 1 0-3h28a1.5 1.5 0 0 1 0 3z"/></svg><svg width="32" height="32" viewBox="0 0 32 32" y="714"><path fill="#007afa" d="M27.922 13.67h1.756v.362h.216v-.429a.13.13 0 0 0-.13-.131h-.85v-.162h-.252v.163h-.826a.13.13 0 0 0-.13.131v.429h.216v-.363zm1.51 1.073c-.036-.044-.041-.096.009-.146l.398-.396h-.315l-.267.266a.292.292 0 0 0-.021.387l.454.562h.285l-.543-.673zm.063-.71v-.197h-1.388v.197h.596a3.835 3.835 0 0 1-.997.315v.209c.29-.042.709-.16 1.058-.325.012.052.022.114.03.184a3.772 3.772 0 0 1-1.088.362v.209c.302-.044.745-.17 1.102-.347v.105l-.004.095a3.745 3.745 0 0 1-1.097.367v.209a4.035 4.035 0 0 0 1.073-.333 3.39 3.39 0 0 1-.063.333h.238c.03-.143.071-.388.077-.666.005-.233-.018-.53-.095-.717h.558zM26.779 13.31h-.217l-.041.183h-.341l-.054-.183h-.224l.091.309a.098.098 0 0 0 .094.071h.389l-.127.564c-.007.029 0 .06.019.083s.047.037.077.037h.397v.323h-.494v.197h.494v.324h-.637v-1.233c0-.054-.063-.099-.117-.099h-.677l.044-.198h.401v-.197h-.357l.04-.183h-.212l-.171.775h.257v.373h-.24v.197h.24v.557c0 .149.04.204.22.204h.223v-.197h-.223v-.564h.223v-.197h-.223v-.373h.358v1.086c0 .179.015.245.216.245h1.267v-.197h-.391v-.324h.391v-.197h-.391v-.323h.391v-.197h-.391v-.316h-.239v.317h-.26l.11-.487h.78v-.197h-.736l.041-.183zM2.703 13.298H2v3.442c0 .613.288.925.855.925h1.503v-.673H2.703v-3.694zM16.48 16.979c0 1.01-.259 1.05-.895 1.05v.673c.917 0 1.503-.26 1.562-1.509h.005v-3.894h-.672v3.68zM4.867 17.665h.672v-4.367h-.672v4.367zM18.134 17.665h.672v-4.367h-.672v4.367zM13.374 13.298c-1.119 0-2.029.928-2.029 2.07v2.291h.671v-2.291c0-.77.609-1.397 1.358-1.397s1.358.627 1.358 1.397v2.291h.672v-2.291c-.001-1.141-.911-2.07-2.03-2.07zM8.479 13.298H8.38c-1.12 0-2.066.976-2.066 2.131v.099c0 1.195.901 2.131 2.052 2.131h2.179v-3.872h-.67a2.164 2.164 0 0 0-1.396-.489zm1.395 3.689H8.366c-.864 0-1.381-.741-1.381-1.458v-.099c0-.79.639-1.458 1.395-1.458h.099c.769 0 1.395.518 1.395 1.307v1.708zM23.137 13.787a2.167 2.167 0 0 0-1.397-.489h-.099c-1.12 0-2.066.976-2.066 2.131v.099c0 1.195.901 2.131 2.052 2.131h2.179v-3.872h-.669zm-.002 3.2h-1.507c-.864 0-1.381-.741-1.381-1.458v-.099c0-.79.639-1.458 1.395-1.458h.099c.769 0 1.395.518 1.395 1.307v1.708zM29.162 17.71h-.335v-.922a.203.203 0 0 0-.202-.202h-.054a.203.203 0 0 0-.202.202v.922h-.335v-.922c0-.297.241-.538.537-.538h.054c.296 0 .537.242.537.538v.922z"/><path fill="#007afa" d="M30 17.71h-.335v-.922a.203.203 0 0 0-.202-.202h-.054a.203.203 0 0 0-.202.202v.922h-.335v-.922c0-.297.241-.538.537-.538h.054c.296 0 .537.242.537.538v.922zM27.139 17.735a.749.749 0 0 1 0-1.498.75.75 0 0 1 0 1.498zm0-1.162a.413.413 0 1 0 .002.826.413.413 0 0 0-.002-.826z"/><path fill="#007afa" d="M26.366 17.71h-.5c-.368 0-.667-.327-.667-.73s.299-.731.667-.731h.5v.336h-.5c-.183 0-.332.177-.332.395s.149.394.332.394h.5v.336zM24.863 17.493a.245.245 0 1 1-.49 0 .245.245 0 0 1 .49 0z"/></svg><svg width="32" height="32" viewBox="0 0 32 32" y="756"><path fill="#444" d="M16.496 31.875c-5.791 0-10.644-.789-13.315-2.164-.54-.281-.938-.661-1.188-1.135-.318-.564-.314-1.173-.283-1.491.007-.071.013-.117.015-.157 0-3.011 3.935-6.682 8.603-8.152-.994-1.325-1.498-2.949-1.498-4.841V8.658c0-2.102.709-4.044 1.996-5.468 1.351-1.493 3.226-2.315 5.28-2.315 4.606 0 7.015 3.916 7.015 7.783v5.275c0 2.036-.33 3.517-1.056 4.668 4.944 1.369 8.211 5.286 8.211 8.302l.009.107c.117 1.161-.433 2.172-1.469 2.704-2.794 1.434-6.938 2.161-12.32 2.161zM4.718 27.122c2.285 1.09 6.75 1.753 11.778 1.753 4.789 0 8.417-.588 10.787-1.748a3.352 3.352 0 0 1-.008-.224c0-1.446-2.275-4.631-6.625-5.562l-4.142-.887 2.779-3.136c.387-.438.832-1.217.832-3.386V8.658c0-1.776-.846-4.783-4.015-4.783-1.195 0-2.28.471-3.055 1.327-.787.871-1.221 2.099-1.221 3.456v5.276c0 1.449.407 2.577 1.243 3.446l2.902 3.025-4.102 1.047c-4.201 1.074-7.149 4.198-7.149 5.481.002.059 0 .121-.004.189z"/></svg><svg width="32" height="32" viewBox="0 0 32 32" y="798"><path fill="#22bae0" d="M27.922 13.67h1.756v.362h.216v-.43a.13.13 0 0 0-.13-.131h-.851v-.163h-.251v.163h-.827a.13.13 0 0 0-.13.131v.43h.216l.001-.362zm1.511 1.073c-.035-.045-.041-.096.009-.146l.399-.396h-.315l-.267.266a.294.294 0 0 0-.022.388l.454.562h.285l-.543-.674zm.062-.711v-.197h-1.387v.197h.596c-.349.17-.752.276-.997.315v.209c.29-.042.709-.161 1.058-.326.012.051.022.113.03.184a3.757 3.757 0 0 1-1.087.362v.209c.303-.043.744-.17 1.101-.347v.105l-.004.095a3.775 3.775 0 0 1-1.097.367v.209a4.04 4.04 0 0 0 1.073-.332c-.02.145-.046.262-.063.332h.238c.03-.143.072-.388.077-.666.005-.234-.019-.531-.095-.717-.003.001.557.001.557.001zM26.779 13.31h-.216l-.041.182h-.342l-.054-.182h-.224l.091.309c.012.042.051.07.095.07h.389l-.127.565c-.007.03 0 .059.019.084a.101.101 0 0 0 .077.038h.397v.323h-.494v.197h.494v.324h-.636v-1.233c0-.054-.063-.099-.118-.099h-.677l.043-.199h.401v-.197H25.5l.041-.182h-.212l-.172.774h.257v.373h-.24v.197h.24v.557c0 .149.041.204.22.204h.223v-.197h-.223v-.563h.223v-.197h-.223v-.373h.358v1.086c0 .18.015.246.216.246h1.267v-.197h-.39v-.324h.39v-.197h-.39v-.323h.39v-.197h-.39v-.316h-.239v.316h-.259l.109-.488h.779v-.197h-.736l.04-.184zM2.702 13.299H2v3.442c0 .613.288.925.855.925h1.502v-.673H2.702v-3.694zM16.48 16.979c0 1.01-.258 1.051-.896 1.051v.673c.917 0 1.504-.259 1.562-1.509h.005v-3.895h-.671v3.68zM4.867 17.665h.671v-4.367h-.671v4.367zM18.134 17.665h.671v-4.367h-.671v4.367zM13.375 13.299c-1.119 0-2.029.928-2.029 2.07v2.291h.671v-2.291c0-.77.609-1.397 1.358-1.397.748 0 1.358.627 1.358 1.397v2.291h.671v-2.291c0-1.142-.911-2.07-2.029-2.07zM8.479 13.299H8.38c-1.12 0-2.067.975-2.067 2.13v.099c0 1.196.901 2.13 2.052 2.13h2.18v-3.872h-.67a2.17 2.17 0 0 0-1.396-.487zm1.395 3.688H8.365c-.865 0-1.381-.742-1.381-1.458v-.099c0-.79.639-1.458 1.394-1.458h.099c.769 0 1.394.517 1.394 1.306v1.708h.003zM23.137 13.787a2.167 2.167 0 0 0-1.397-.489h-.099c-1.12 0-2.066.975-2.066 2.13v.099c0 1.196.901 2.13 2.052 2.13h2.179v-3.872h-.67v.002zm-.002 3.2h-1.507c-.865 0-1.381-.742-1.381-1.458v-.099c0-.79.639-1.458 1.394-1.458h.099c.769 0 1.394.517 1.394 1.306v1.708h.001zM29.162 17.71h-.335v-.923a.203.203 0 0 0-.201-.203h-.054a.202.202 0 0 0-.201.203v.923h-.335v-.923c0-.297.24-.538.538-.538h.054a.54.54 0 0 1 .538.538v.923h-.004z"/><path fill="#22bae0" d="M30 17.71h-.335v-.923a.203.203 0 0 0-.201-.203h-.054a.202.202 0 0 0-.201.203v.923h-.335v-.923c0-.297.24-.538.536-.538h.054c.296 0 .536.242.536.538v.923zM27.139 17.735a.749.749 0 0 1 0-1.496.749.749 0 0 1 0 1.496zm0-1.162a.413.413 0 1 0 .002.826.413.413 0 0 0-.002-.826zM26.366 17.71h-.5c-.367 0-.667-.327-.667-.729s.3-.731.667-.731h.5v.336h-.5c-.184 0-.332.177-.332.394s.149.394.332.394h.5v.336zM24.864 17.493a.245.245 0 1 1-.49 0 .245.245 0 0 1 .49 0z"/></svg><svg width="32" height="32" viewBox="0 0 32 32" y="840"><path fill="#22bae0" d="M29.683 28.334l-4.974-4.974a12.914 12.914 0 0 0 3.244-8.564c0-7.167-5.81-12.977-12.977-12.977C7.81 1.82 2 7.63 2 14.796c0 7.167 5.81 12.977 12.977 12.977 3.102 0 5.947-1.092 8.18-2.907l4.997 4.998a1.082 1.082 0 0 0 1.529-1.53zM4.163 14.796c0-5.972 4.842-10.814 10.814-10.814s10.814 4.842 10.814 10.814S20.949 25.61 14.977 25.61c-5.973 0-10.814-4.841-10.814-10.814z"/></svg><svg width="32" height="32" viewBox="0 0 32 32" y="882"><path fill="#22bae0" d="M30 23.412H2L16.824 8.588 30 23.412z"/></svg><svg width="32" height="32" viewBox="0 0 32 32" y="924"><path fill="#22bae0" d="M30 15.266H5.676l7.64-7.639-1.358-1.358L2 16.226l9.505 9.505 1.358-1.358-7.187-7.187H30z"/></svg></svg>